<svg width="63" height="58" viewBox="0 0 63 58" fill="none" xmlns="http://www.w3.org/2000/svg">
<path d="M32 15.6667C39.364 15.6667 45.3333 21.636 45.3333 29C45.3333 36.364 39.364 42.3334 32 42.3334C24.636 42.3334 18.6666 36.364 18.6666 29H21.3333C21.3333 34.8907 26.1093 39.6667 32 39.6667C37.8906 39.6667 42.6666 34.8907 42.6666 29C42.6666 23.1094 37.8906 18.3334 32 18.3334C28.3333 18.3334 25.0986 20.1827 23.18 23H26.6666V25.6667H18.6666V17.6667H21.3333V21C23.7653 17.76 27.6386 15.6667 32 15.6667ZM33.3333 22.3334V28.4467L37.6573 32.7707L35.7706 34.6574L30.6666 29.5507V22.3334H33.3333Z" fill="#FA8C16"/>
<g opacity="0.1">
<rect width="63" height="58" rx="4" fill="#FA8C16"/>
</g>
</svg>
