<svg width="63" height="58" viewBox="0 0 63 58" fill="none" xmlns="http://www.w3.org/2000/svg">
<path d="M36.0933 14.3467H28.0933V17.0133H36.0933V14.3467V14.3467ZM30.7599 31.68H33.4266V23.68H30.7599V31.68ZM41.4666 22.8533L43.3599 20.96C42.7866 20.28 42.1599 19.64 41.4799 19.08L39.5866 20.9733C37.5199 19.32 34.9199 18.3333 32.0933 18.3333C25.4666 18.3333 20.0933 23.7067 20.0933 30.3333C20.0933 36.96 25.4533 42.3333 32.0933 42.3333C38.7333 42.3333 44.0933 36.96 44.0933 30.3333C44.0933 27.52 43.1066 24.92 41.4666 22.8533ZM32.0933 39.68C26.9333 39.68 22.7599 35.5067 22.7599 30.3467C22.7599 25.1867 26.9333 21.0133 32.0933 21.0133C37.2533 21.0133 41.4266 25.1867 41.4266 30.3467C41.4266 35.5067 37.2533 39.68 32.0933 39.68Z" fill="#323232"/>
<g opacity="0.1">
<rect width="63" height="58" rx="4" fill="#31286A"/>
</g>
</svg>
