<svg width="152" height="21" viewBox="0 0 152 21" fill="none" xmlns="http://www.w3.org/2000/svg">
<path opacity="0.5" d="M10.0376 12.352H4.18159L3.00559 16.024C2.86159 16.088 2.70959 16.136 2.54959 16.168C2.38959 16.2 2.19759 16.216 1.97359 16.216C1.57359 16.216 1.24559 16.128 0.989594 15.952C0.733594 15.776 0.605594 15.512 0.605594 15.16C0.605594 14.984 0.629594 14.816 0.677594 14.656C0.725594 14.48 0.789594 14.288 0.869594 14.08C1.07759 13.408 1.36559 12.544 1.73359 11.488C2.11759 10.416 2.51759 9.288 2.93359 8.104C3.36559 6.92 3.79759 5.76 4.22959 4.624C4.66159 3.472 5.03759 2.488 5.35759 1.672C5.51759 1.576 5.76559 1.488 6.10159 1.408C6.43759 1.312 6.78159 1.264 7.13359 1.264C7.59759 1.264 8.01359 1.328 8.38159 1.456C8.74959 1.584 8.99759 1.808 9.12559 2.128C9.47759 3.04 9.86159 4.08 10.2776 5.248C10.6936 6.4 11.1096 7.592 11.5256 8.824C11.9416 10.056 12.3416 11.264 12.7256 12.448C13.1096 13.632 13.4536 14.704 13.7576 15.664C13.6136 15.824 13.4216 15.952 13.1816 16.048C12.9576 16.16 12.6856 16.216 12.3656 16.216C11.9336 16.216 11.6216 16.136 11.4296 15.976C11.2376 15.8 11.0776 15.512 10.9496 15.112L10.0376 12.352ZM7.10959 3.496C6.94959 3.928 6.77359 4.416 6.58159 4.96C6.38959 5.504 6.18959 6.08 5.98159 6.688C5.77359 7.28 5.56559 7.888 5.35759 8.512C5.14959 9.12 4.94959 9.712 4.75759 10.288H9.48559C9.27759 9.648 9.06159 9.008 8.83759 8.368C8.62959 7.712 8.42159 7.088 8.21359 6.496C8.02159 5.904 7.83759 5.352 7.66159 4.84C7.48559 4.312 7.34159 3.864 7.22959 3.496H7.10959ZM29.9951 8.488C29.9951 7.784 29.7951 7.272 29.3951 6.952C29.0111 6.616 28.4831 6.448 27.8111 6.448C27.3631 6.448 26.9311 6.536 26.5151 6.712C26.1151 6.872 25.7471 7.096 25.4111 7.384C25.4431 7.512 25.4671 7.648 25.4831 7.792C25.4991 7.936 25.5071 8.08 25.5071 8.224V15.952C25.3951 16 25.2351 16.04 25.0271 16.072C24.8191 16.12 24.6031 16.144 24.3791 16.144C23.9151 16.144 23.5711 16.056 23.3471 15.88C23.1231 15.704 23.0111 15.408 23.0111 14.992V8.488C23.0111 7.784 22.8111 7.272 22.4111 6.952C22.0111 6.616 21.4751 6.448 20.8031 6.448C20.3551 6.448 19.9311 6.52 19.5311 6.664C19.1311 6.808 18.7951 6.968 18.5231 7.144V15.952C18.4111 16 18.2511 16.04 18.0431 16.072C17.8511 16.12 17.6351 16.144 17.3951 16.144C16.9311 16.144 16.5871 16.056 16.3631 15.88C16.1391 15.704 16.0271 15.408 16.0271 14.992V7.072C16.0271 6.704 16.0991 6.408 16.2431 6.184C16.3871 5.96 16.6271 5.736 16.9631 5.512C17.4271 5.208 18.0111 4.952 18.7151 4.744C19.4191 4.536 20.1311 4.432 20.8511 4.432C21.6031 4.432 22.2751 4.536 22.8671 4.744C23.4751 4.952 23.9711 5.256 24.3551 5.656C24.8031 5.304 25.3311 5.016 25.9391 4.792C26.5631 4.552 27.2831 4.432 28.0991 4.432C28.7231 4.432 29.3071 4.512 29.8511 4.672C30.3951 4.816 30.8591 5.056 31.2431 5.392C31.6431 5.712 31.9551 6.12 32.1791 6.616C32.4031 7.112 32.5151 7.704 32.5151 8.392V15.952C32.3871 16 32.2191 16.04 32.0111 16.072C31.8191 16.12 31.6031 16.144 31.3631 16.144C30.8991 16.144 30.5551 16.056 30.3311 15.88C30.1071 15.704 29.9951 15.408 29.9951 14.992V8.488ZM41.1838 4.432C41.9358 4.432 42.6398 4.56 43.2958 4.816C43.9518 5.056 44.5198 5.424 44.9998 5.92C45.4798 6.4 45.8558 7.016 46.1278 7.768C46.3998 8.504 46.5358 9.368 46.5358 10.36C46.5358 11.368 46.3918 12.248 46.1038 13C45.8318 13.752 45.4398 14.376 44.9278 14.872C44.4158 15.352 43.7998 15.72 43.0798 15.976C42.3758 16.216 41.5918 16.336 40.7278 16.336C39.8638 16.336 39.0958 16.232 38.4238 16.024C37.7678 15.816 37.2318 15.576 36.8158 15.304C36.4798 15.08 36.2398 14.856 36.0958 14.632C35.9518 14.408 35.8798 14.12 35.8798 13.768V0.423999C35.9918 0.391999 36.1518 0.351999 36.3598 0.303999C36.5678 0.256 36.7918 0.232 37.0318 0.232C37.4958 0.232 37.8318 0.32 38.0398 0.495999C38.2638 0.671999 38.3758 0.967999 38.3758 1.384V5.176C38.7278 4.984 39.1358 4.816 39.5998 4.672C40.0638 4.512 40.5918 4.432 41.1838 4.432ZM40.7758 6.448C40.2638 6.448 39.8078 6.536 39.4078 6.712C39.0078 6.872 38.6638 7.064 38.3758 7.288V13.672C38.5998 13.832 38.9118 13.976 39.3118 14.104C39.7118 14.232 40.1758 14.296 40.7038 14.296C41.6798 14.296 42.4718 13.976 43.0798 13.336C43.6878 12.696 43.9918 11.704 43.9918 10.36C43.9918 9 43.6878 8.008 43.0798 7.384C42.4878 6.76 41.7198 6.448 40.7758 6.448ZM51.2055 11.656C51.4295 12.568 51.8615 13.248 52.5015 13.696C53.1575 14.128 53.9895 14.344 54.9975 14.344C55.6695 14.344 56.2855 14.24 56.8455 14.032C57.4055 13.824 57.8535 13.6 58.1895 13.36C58.6375 13.616 58.8615 13.976 58.8615 14.44C58.8615 14.712 58.7575 14.968 58.5495 15.208C58.3415 15.432 58.0535 15.632 57.6855 15.808C57.3335 15.968 56.9095 16.096 56.4135 16.192C55.9335 16.288 55.4135 16.336 54.8535 16.336C53.9255 16.336 53.0775 16.208 52.3095 15.952C51.5575 15.696 50.9095 15.312 50.3655 14.8C49.8215 14.288 49.3975 13.656 49.0935 12.904C48.8055 12.152 48.6615 11.28 48.6615 10.288C48.6615 9.328 48.8055 8.488 49.0935 7.768C49.3815 7.032 49.7735 6.424 50.2695 5.944C50.7655 5.448 51.3495 5.072 52.0215 4.816C52.6935 4.56 53.4135 4.432 54.1815 4.432C54.9495 4.432 55.6455 4.56 56.2695 4.816C56.9095 5.056 57.4535 5.4 57.9015 5.848C58.3655 6.28 58.7175 6.8 58.9575 7.408C59.2135 8.016 59.3415 8.68 59.3415 9.4C59.3415 9.8 59.2455 10.096 59.0535 10.288C58.8615 10.464 58.5815 10.584 58.2135 10.648L51.2055 11.656ZM54.1815 6.376C53.3015 6.376 52.5655 6.672 51.9735 7.264C51.3975 7.856 51.0935 8.704 51.0615 9.808L56.9655 8.968C56.9015 8.248 56.6375 7.64 56.1735 7.144C55.7095 6.632 55.0455 6.376 54.1815 6.376ZM64.4137 15.952C64.3017 16 64.1417 16.04 63.9337 16.072C63.7417 16.12 63.5257 16.144 63.2857 16.144C62.8217 16.144 62.4777 16.056 62.2537 15.88C62.0297 15.704 61.9177 15.408 61.9177 14.992V7.12C61.9177 6.72 61.9977 6.4 62.1577 6.16C62.3177 5.904 62.5737 5.664 62.9257 5.44C63.3897 5.152 63.9817 4.912 64.7017 4.72C65.4217 4.528 66.2137 4.432 67.0777 4.432C68.4857 4.432 69.1897 4.832 69.1897 5.632C69.1897 5.824 69.1577 6.008 69.0937 6.184C69.0297 6.344 68.9577 6.488 68.8777 6.616C68.7177 6.584 68.5177 6.552 68.2777 6.52C68.0377 6.488 67.7817 6.472 67.5097 6.472C66.8697 6.472 66.2857 6.544 65.7577 6.688C65.2297 6.816 64.7817 6.984 64.4137 7.192V15.952ZM87.258 3.16C87.258 3.432 87.178 3.672 87.018 3.88C86.874 4.088 86.698 4.24 86.49 4.336C86.074 4.064 85.594 3.808 85.05 3.568C84.522 3.328 83.85 3.208 83.034 3.208C82.33 3.208 81.682 3.328 81.09 3.568C80.514 3.808 80.01 4.16 79.578 4.624C79.162 5.088 78.834 5.664 78.594 6.352C78.354 7.04 78.234 7.832 78.234 8.728C78.234 10.536 78.682 11.904 79.578 12.832C80.474 13.76 81.658 14.224 83.13 14.224C83.914 14.224 84.594 14.112 85.17 13.888C85.746 13.664 86.242 13.408 86.658 13.12C86.834 13.232 86.994 13.392 87.138 13.6C87.298 13.808 87.378 14.048 87.378 14.32C87.378 14.544 87.314 14.752 87.186 14.944C87.074 15.136 86.882 15.312 86.61 15.472C86.258 15.696 85.778 15.896 85.17 16.072C84.562 16.248 83.794 16.336 82.866 16.336C81.842 16.336 80.89 16.184 80.01 15.88C79.13 15.56 78.362 15.088 77.706 14.464C77.05 13.824 76.53 13.032 76.146 12.088C75.778 11.128 75.594 10.008 75.594 8.728C75.594 7.48 75.786 6.376 76.17 5.416C76.554 4.456 77.066 3.656 77.706 3.016C78.362 2.376 79.122 1.896 79.986 1.576C80.85 1.24 81.77 1.072 82.746 1.072C83.434 1.072 84.05 1.136 84.594 1.264C85.154 1.376 85.626 1.528 86.01 1.72C86.41 1.912 86.714 2.136 86.922 2.392C87.146 2.648 87.258 2.904 87.258 3.16ZM100.303 10.384C100.303 11.296 100.167 12.12 99.8951 12.856C99.6231 13.592 99.2391 14.216 98.7431 14.728C98.2631 15.24 97.6711 15.64 96.9671 15.928C96.2631 16.2 95.4791 16.336 94.6151 16.336C93.7511 16.336 92.9671 16.2 92.2631 15.928C91.5591 15.64 90.9591 15.24 90.4631 14.728C89.9831 14.216 89.6071 13.592 89.3351 12.856C89.0631 12.12 88.9271 11.296 88.9271 10.384C88.9271 9.472 89.0631 8.648 89.3351 7.912C89.6071 7.176 89.9911 6.552 90.4871 6.04C90.9831 5.528 91.5831 5.136 92.2871 4.864C92.9911 4.576 93.7671 4.432 94.6151 4.432C95.4631 4.432 96.2391 4.576 96.9431 4.864C97.6471 5.136 98.2471 5.536 98.7431 6.064C99.2391 6.576 99.6231 7.2 99.8951 7.936C100.167 8.656 100.303 9.472 100.303 10.384ZM94.6151 6.448C93.6551 6.448 92.8951 6.792 92.3351 7.48C91.7751 8.168 91.4951 9.136 91.4951 10.384C91.4951 11.632 91.7671 12.6 92.3111 13.288C92.8551 13.96 93.6231 14.296 94.6151 14.296C95.6071 14.296 96.3751 13.96 96.9191 13.288C97.4631 12.6 97.7351 11.632 97.7351 10.384C97.7351 9.152 97.4551 8.192 96.8951 7.504C96.3511 6.8 95.5911 6.448 94.6151 6.448ZM104.54 16.144C104.076 16.144 103.732 16.056 103.508 15.88C103.284 15.704 103.172 15.408 103.172 14.992V0.423999C103.284 0.391999 103.444 0.351999 103.652 0.303999C103.86 0.256 104.084 0.232 104.324 0.232C104.788 0.232 105.132 0.32 105.356 0.495999C105.58 0.671999 105.692 0.967999 105.692 1.384V15.952C105.564 16 105.396 16.04 105.188 16.072C104.996 16.12 104.78 16.144 104.54 16.144ZM110.727 16.144C110.263 16.144 109.919 16.056 109.695 15.88C109.471 15.704 109.359 15.408 109.359 14.992V0.423999C109.471 0.391999 109.631 0.351999 109.839 0.303999C110.047 0.256 110.271 0.232 110.511 0.232C110.975 0.232 111.319 0.32 111.543 0.495999C111.767 0.671999 111.879 0.967999 111.879 1.384V15.952C111.751 16 111.583 16.04 111.375 16.072C111.183 16.12 110.967 16.144 110.727 16.144ZM117.276 11.656C117.5 12.568 117.932 13.248 118.572 13.696C119.228 14.128 120.06 14.344 121.068 14.344C121.74 14.344 122.356 14.24 122.916 14.032C123.476 13.824 123.924 13.6 124.26 13.36C124.708 13.616 124.932 13.976 124.932 14.44C124.932 14.712 124.828 14.968 124.62 15.208C124.412 15.432 124.124 15.632 123.756 15.808C123.404 15.968 122.98 16.096 122.484 16.192C122.004 16.288 121.484 16.336 120.924 16.336C119.996 16.336 119.148 16.208 118.38 15.952C117.628 15.696 116.98 15.312 116.436 14.8C115.892 14.288 115.468 13.656 115.164 12.904C114.876 12.152 114.732 11.28 114.732 10.288C114.732 9.328 114.876 8.488 115.164 7.768C115.452 7.032 115.844 6.424 116.34 5.944C116.836 5.448 117.42 5.072 118.092 4.816C118.764 4.56 119.484 4.432 120.252 4.432C121.02 4.432 121.716 4.56 122.34 4.816C122.98 5.056 123.524 5.4 123.972 5.848C124.436 6.28 124.788 6.8 125.028 7.408C125.284 8.016 125.412 8.68 125.412 9.4C125.412 9.8 125.316 10.096 125.124 10.288C124.932 10.464 124.652 10.584 124.284 10.648L117.276 11.656ZM120.252 6.376C119.372 6.376 118.636 6.672 118.044 7.264C117.468 7.856 117.164 8.704 117.132 9.808L123.036 8.968C122.972 8.248 122.708 7.64 122.244 7.144C121.78 6.632 121.116 6.376 120.252 6.376ZM135.332 14.944C135.028 15.136 134.652 15.296 134.204 15.424C133.772 15.552 133.252 15.616 132.644 15.616C131.94 15.616 131.268 15.52 130.628 15.328C130.004 15.12 129.452 14.8 128.972 14.368C128.492 13.92 128.108 13.344 127.82 12.64C127.548 11.936 127.412 11.072 127.412 10.048C127.412 9.12 127.548 8.312 127.82 7.624C128.108 6.92 128.5 6.336 128.996 5.872C129.508 5.392 130.108 5.032 130.796 4.792C131.5 4.552 132.276 4.432 133.124 4.432C133.908 4.432 134.628 4.536 135.284 4.744C135.956 4.936 136.5 5.168 136.916 5.44C137.188 5.616 137.396 5.816 137.54 6.04C137.7 6.264 137.78 6.536 137.78 6.856V16.312C137.78 17.112 137.636 17.8 137.348 18.376C137.076 18.952 136.692 19.416 136.196 19.768C135.716 20.136 135.14 20.4 134.468 20.56C133.796 20.736 133.076 20.824 132.308 20.824C131.492 20.824 130.788 20.744 130.196 20.584C129.604 20.424 129.172 20.264 128.9 20.104C128.404 19.8 128.156 19.4 128.156 18.904C128.156 18.632 128.212 18.4 128.324 18.208C128.436 18.032 128.58 17.888 128.756 17.776C129.124 18.032 129.612 18.264 130.22 18.472C130.828 18.68 131.476 18.784 132.164 18.784C133.172 18.784 133.948 18.576 134.492 18.16C135.052 17.76 135.332 17.104 135.332 16.192V14.944ZM133.004 13.648C133.548 13.648 134.004 13.568 134.372 13.408C134.74 13.248 135.052 13.056 135.308 12.832V7.024C135.068 6.88 134.772 6.752 134.42 6.64C134.068 6.512 133.652 6.448 133.172 6.448C132.196 6.448 131.412 6.744 130.82 7.336C130.228 7.928 129.932 8.824 129.932 10.024C129.932 10.68 130.012 11.24 130.172 11.704C130.332 12.168 130.548 12.544 130.82 12.832C131.092 13.12 131.412 13.328 131.78 13.456C132.164 13.584 132.572 13.648 133.004 13.648ZM143.01 11.656C143.234 12.568 143.666 13.248 144.306 13.696C144.962 14.128 145.794 14.344 146.802 14.344C147.474 14.344 148.09 14.24 148.65 14.032C149.21 13.824 149.658 13.6 149.994 13.36C150.442 13.616 150.666 13.976 150.666 14.44C150.666 14.712 150.562 14.968 150.354 15.208C150.146 15.432 149.858 15.632 149.49 15.808C149.138 15.968 148.714 16.096 148.218 16.192C147.738 16.288 147.218 16.336 146.658 16.336C145.73 16.336 144.882 16.208 144.114 15.952C143.362 15.696 142.714 15.312 142.17 14.8C141.626 14.288 141.202 13.656 140.898 12.904C140.61 12.152 140.466 11.28 140.466 10.288C140.466 9.328 140.61 8.488 140.898 7.768C141.186 7.032 141.578 6.424 142.074 5.944C142.57 5.448 143.154 5.072 143.826 4.816C144.498 4.56 145.218 4.432 145.986 4.432C146.754 4.432 147.45 4.56 148.074 4.816C148.714 5.056 149.258 5.4 149.706 5.848C150.17 6.28 150.522 6.8 150.762 7.408C151.018 8.016 151.146 8.68 151.146 9.4C151.146 9.8 151.05 10.096 150.858 10.288C150.666 10.464 150.386 10.584 150.018 10.648L143.01 11.656ZM145.986 6.376C145.106 6.376 144.37 6.672 143.778 7.264C143.202 7.856 142.898 8.704 142.866 9.808L148.77 8.968C148.706 8.248 148.442 7.64 147.978 7.144C147.514 6.632 146.85 6.376 145.986 6.376Z" fill="black"/>
</svg>
