<svg width="63" height="58" viewBox="0 0 63 58" fill="none" xmlns="http://www.w3.org/2000/svg">
<rect width="63" height="58" rx="4" fill="#99D1FF" fill-opacity="0.1"/>
<path d="M38.25 40.25H25.75C23.979 40.2511 22.2648 39.6255 20.9108 38.484C19.5569 37.3424 18.6506 35.7586 18.3523 34.0129C18.0541 32.2672 18.3833 30.4724 19.2815 28.9461C20.1797 27.4198 21.5891 26.2606 23.26 25.6738C23.2034 24.4908 23.3875 23.3087 23.8012 22.1991C24.2149 21.0894 24.8495 20.0752 25.6666 19.218C26.4838 18.3608 27.4665 17.6785 28.5551 17.2122C29.6437 16.746 30.8157 16.5056 32 16.5056C33.1842 16.5056 34.3562 16.746 35.4448 17.2122C36.5335 17.6785 37.5161 18.3608 38.3333 19.218C39.1504 20.0752 39.7851 21.0894 40.1988 22.1991C40.6125 23.3087 40.7966 24.4908 40.74 25.6738C42.4109 26.2606 43.8202 27.4198 44.7184 28.9461C45.6166 30.4724 45.9458 32.2672 45.6476 34.0129C45.3494 35.7586 44.4431 37.3424 43.0891 38.484C41.7352 39.6255 40.0209 40.2511 38.25 40.25ZM38.25 25.25C38.2503 24.4163 38.0838 23.5909 37.7603 22.8225C37.4367 22.0541 36.9627 21.3581 36.3662 20.7757C35.7696 20.1932 35.0625 19.736 34.2866 19.431C33.5107 19.126 32.6815 18.9793 31.848 18.9995C31.0145 19.0198 30.1935 19.2066 29.4333 19.549C28.6731 19.8914 27.9891 20.3824 27.4216 20.9932C26.854 21.6039 26.4144 22.3221 26.1286 23.1053C25.8428 23.8885 25.7166 24.721 25.7575 25.5538L25.845 27.4138L24.09 28.0313C22.9781 28.4245 22.0409 29.1979 21.4438 30.2149C20.8468 31.232 20.6282 32.4273 20.8268 33.5898C21.0254 34.7523 21.6283 35.8073 22.529 36.5685C23.4298 37.3297 24.5706 37.7481 25.75 37.75H38.25C39.1704 37.7497 40.0729 37.4954 40.858 37.015C41.6431 36.5346 42.2804 35.8468 42.6996 35.0274C43.1188 34.208 43.3037 33.2887 43.234 32.3709C43.1642 31.4532 42.8424 30.5725 42.3041 29.8259C41.7658 29.0792 41.0319 28.4957 40.1832 28.1395C39.3344 27.7834 38.4039 27.6684 37.494 27.8072C36.5841 27.9461 35.7302 28.3334 35.0264 28.9266C34.3225 29.5197 33.7961 30.2956 33.505 31.1688L31.1325 30.3775C31.631 28.8842 32.5866 27.5856 33.8639 26.6654C35.1413 25.7452 36.6757 25.25 38.25 25.25Z" fill="#2597FF"/>
</svg>
