<svg width="14" height="15" viewBox="0 0 14 15" fill="none" xmlns="http://www.w3.org/2000/svg">
<path fill-rule="evenodd" clip-rule="evenodd" d="M4.0637 0.525146C1.82572 0.525146 0 2.35087 0 4.58885V10.4614C0 12.6994 1.82572 14.5251 4.0637 14.5251H9.9363C12.1743 14.5251 14 12.6994 14 10.4614V4.58885C14 2.35087 12.1743 0.525146 9.9363 0.525146H4.0637ZM4.0637 1.60207H9.9363C11.5916 1.60207 12.9231 2.9314 12.9231 4.58885V10.4614C12.9231 12.1168 11.5938 13.4482 9.9363 13.4482H4.0637C2.40835 13.4482 1.07692 12.1189 1.07692 10.4614V4.58885C1.07692 2.9335 2.40625 1.60207 4.0637 1.60207ZM11.0385 2.67899C10.5925 2.67899 10.2308 3.04077 10.2308 3.48669C10.2308 3.9326 10.5925 4.29438 11.0385 4.29438C11.4844 4.29438 11.8462 3.9326 11.8462 3.48669C11.8462 3.04077 11.4844 2.67899 11.0385 2.67899ZM7 3.75592C4.92398 3.75592 3.23077 5.44912 3.23077 7.52515C3.23077 9.60117 4.92398 11.2944 7 11.2944C9.07602 11.2944 10.7692 9.60117 10.7692 7.52515C10.7692 5.44912 9.07602 3.75592 7 3.75592ZM7 4.83284C8.49339 4.83284 9.69231 6.03176 9.69231 7.52515C9.69231 9.01854 8.49339 10.2175 7 10.2175C5.50661 10.2175 4.30769 9.01854 4.30769 7.52515C4.30769 6.03176 5.50661 4.83284 7 4.83284Z" fill="#656565"/>
</svg>
