<svg width="142" height="93" viewBox="0 0 142 93" fill="none" xmlns="http://www.w3.org/2000/svg">
<path d="M40.4301 53.0001V37.3801H43.5101L48.4381 46.4001L53.3881 37.3801H56.3581V53.0001H53.1901V43.1221L49.5601 49.7441H47.2281L43.5981 43.1221V53.0001H40.4301ZM64.2455 53.3301C63.1895 53.3301 62.2655 53.1101 61.4735 52.6701C60.6961 52.2155 60.0875 51.5775 59.6475 50.7561C59.2221 49.9201 59.0095 48.9375 59.0095 47.8081V41.3841H62.0895V47.8741C62.0895 48.7101 62.2875 49.3701 62.6835 49.8541C63.0795 50.3235 63.6148 50.5581 64.2895 50.5581C64.9641 50.5581 65.4995 50.3235 65.8955 49.8541C66.2915 49.3701 66.4895 48.7101 66.4895 47.8741V41.3841H69.5695V47.8081C69.5695 48.6441 69.4448 49.3995 69.1955 50.0741C68.9461 50.7488 68.5868 51.3281 68.1175 51.8121C67.6481 52.2961 67.0835 52.6701 66.4235 52.9341C65.7781 53.1981 65.0521 53.3301 64.2455 53.3301ZM74.889 53.0001L71.039 41.3841H74.207L76.385 49.2381L78.739 41.3841H81.401L83.755 49.2601L85.977 41.3841H89.035L85.185 53.0001H82.347L80.015 45.1461L77.683 53.0001H74.889ZM93.6834 53.3301C93.082 53.3301 92.532 53.2421 92.0334 53.0661C91.5347 52.8901 91.0947 52.6408 90.7134 52.3181C90.3467 51.9808 90.0607 51.5921 89.8554 51.1521C89.65 50.7121 89.5474 50.2281 89.5474 49.7001C89.5474 48.9668 89.7454 48.3215 90.1414 47.7641C90.5374 47.2068 91.0947 46.7741 91.8134 46.4661C92.532 46.1435 93.368 45.9821 94.3214 45.9821C94.8054 45.9821 95.26 46.0261 95.6854 46.1141C96.1254 46.2021 96.5507 46.3268 96.9614 46.4881V45.8061C96.9614 45.1461 96.7707 44.6108 96.3894 44.2001C96.0227 43.7895 95.5167 43.5841 94.8714 43.5841C94.3874 43.5841 93.9474 43.7088 93.5514 43.9581C93.1554 44.1928 92.8767 44.5301 92.7154 44.9701L89.9654 44.4201C90.1267 43.7455 90.442 43.1588 90.9114 42.6601C91.3954 42.1468 91.982 41.7508 92.6714 41.4721C93.3607 41.1935 94.1087 41.0541 94.9154 41.0541C95.6634 41.0541 96.3454 41.1715 96.9614 41.4061C97.5774 41.6408 98.1054 41.9781 98.5454 42.4181C99 42.8581 99.3447 43.3788 99.5794 43.9801C99.8287 44.5668 99.9534 45.2268 99.9534 45.9601V53.0001H97.2034L97.1154 51.6361C96.8074 52.1348 96.36 52.5455 95.7734 52.8681C95.1867 53.1761 94.49 53.3301 93.6834 53.3301ZM92.5834 49.5461C92.5834 49.9568 92.752 50.2941 93.0894 50.5581C93.4267 50.8221 93.874 50.9541 94.4314 50.9541C94.9154 50.9541 95.348 50.8515 95.7294 50.6461C96.1107 50.4408 96.4114 50.1621 96.6314 49.8101C96.8514 49.4435 96.9614 49.0401 96.9614 48.6001V48.4901C96.6387 48.3581 96.294 48.2555 95.9274 48.1821C95.5607 48.0941 95.194 48.0501 94.8274 48.0501C94.138 48.0501 93.588 48.1895 93.1774 48.4681C92.7814 48.7321 92.5834 49.0915 92.5834 49.5461Z" fill="#191919"/>
<path d="M131.009 29.9817C130.007 26.4976 127.415 23.6409 123.569 21.4613C119.722 19.2815 114.627 17.7828 108.635 17.0148C96.6518 15.4789 81.0993 16.8682 64.8209 21.5511C48.5424 26.2341 34.6292 33.3215 25.2936 40.9905C20.6257 44.8251 17.1061 48.8019 15.0059 52.6925C12.906 56.5825 12.2282 60.38 13.2305 63.8641C14.2328 67.3482 16.8249 70.205 20.6709 72.3845C24.5174 74.5643 29.6122 76.063 35.6042 76.831C47.5878 78.3669 63.1402 76.9776 79.4187 72.2947C95.6972 67.6117 109.61 60.5243 118.946 52.8554C123.614 49.0207 127.133 45.0439 129.234 41.1533C131.334 37.2633 132.011 33.4659 131.009 29.9817Z" stroke="#31286A" stroke-width="0.2"/>
<path d="M127.244 26.4282C126.242 22.9441 123.65 20.0874 119.804 17.9078C115.957 15.728 110.862 14.2293 104.87 13.4613C92.8867 11.9254 77.3343 13.3147 61.0559 17.9977C44.7774 22.6806 30.8642 29.768 21.5286 37.437C16.8607 41.2716 13.3411 45.2484 11.2409 49.139C9.14102 53.029 8.46315 56.8265 9.46546 60.3106C10.4678 63.7947 13.0599 66.6515 16.9059 68.831C20.7524 71.0108 25.8472 72.5095 31.8392 73.2775C43.8228 74.8134 59.3752 73.4241 75.6537 68.7412C91.9322 64.0582 105.845 56.9709 115.181 49.3019C119.849 45.4673 123.368 41.4904 125.469 37.5998C127.569 33.7098 128.246 29.9124 127.244 26.4282Z" stroke="#31286A" stroke-width="0.2"/>
<path d="M126.154 24.5455C125.152 21.0614 122.559 18.2046 118.714 16.0251C114.867 13.8453 109.772 12.3466 103.78 11.5786C91.7966 10.0427 76.2442 11.432 59.9657 16.1149C43.6872 20.7979 29.774 27.8853 20.4385 35.5542C15.7705 39.3889 12.2509 43.3657 10.1507 47.2563C8.05087 51.1463 7.373 54.9438 8.37532 58.4279C9.37763 61.912 11.9698 64.7687 15.8157 66.9483C19.6622 69.1281 24.757 70.6268 30.749 71.3948C42.7326 72.9307 58.2851 71.5414 74.5635 66.8585C90.842 62.1755 104.755 55.0881 114.091 47.4191C118.759 43.5845 122.278 39.6077 124.378 35.7171C126.478 31.8271 127.156 28.0296 126.154 24.5455Z" stroke="#31286A" stroke-width="0.2"/>
<path d="M128.873 28.2778C127.871 24.7936 125.279 21.9369 121.433 19.7574C117.586 17.5775 112.492 16.0788 106.5 15.3109C94.516 13.775 78.9635 15.1642 62.6851 19.8472C46.4066 24.5302 32.4934 31.6175 23.1578 39.2865C18.4899 43.1211 14.9703 47.098 12.8701 50.9886C10.7702 54.8786 10.0924 58.676 11.0947 62.1602C12.097 65.6443 14.6891 68.501 18.5351 70.6806C22.3816 72.8604 27.4764 74.3591 33.4684 75.1271C45.452 76.663 61.0044 75.2737 77.2829 70.5907C93.5614 65.9078 107.475 58.8204 116.81 51.1514C121.478 47.3168 124.998 43.3399 127.098 39.4494C129.198 35.5593 129.876 31.7619 128.873 28.2778Z" stroke="#31286A" stroke-width="0.2"/>
<path d="M134.365 31.3335C133.363 27.8494 130.771 24.9926 126.925 22.8131C123.078 20.6333 117.983 19.1346 111.991 18.3666C100.008 16.8307 84.4553 18.22 68.1768 22.9029C51.8984 27.5859 37.9852 34.6733 28.6496 42.3422C23.9816 46.1769 20.462 50.1537 18.3619 54.0443C16.262 57.9343 15.5841 61.7317 16.5864 65.2159C17.5887 68.7 20.1809 71.5567 24.0268 73.7363C27.8733 75.9161 32.9681 77.4148 38.9601 78.1828C50.9438 79.7187 66.4962 78.3294 82.7747 73.6465C99.0531 68.9635 112.966 61.8761 122.302 54.2071C126.97 50.3725 130.489 46.3957 132.59 42.5051C134.689 38.6151 135.367 34.8176 134.365 31.3335Z" stroke="#31286A" stroke-width="0.2"/>
</svg>
