<svg width="123" height="25" viewBox="0 0 123 25" fill="none" xmlns="http://www.w3.org/2000/svg">
<path opacity="0.5" d="M7.15538 3.608C6.25938 4.58933 5.81138 5.83733 5.81138 7.352C5.81138 8.84533 6.19538 9.74133 6.96338 10.04C7.15538 10.104 7.25138 10.2427 7.25138 10.456C7.25138 11.096 7.03804 11.64 6.61138 12.088C6.18471 12.5147 5.66204 12.7707 5.04338 12.856C4.85138 12.856 4.75538 12.9307 4.75538 13.08C4.73404 13.3147 4.72338 13.656 4.72338 14.104C4.72338 14.5307 4.74471 15.0107 4.78738 15.544C4.83004 16.056 4.92604 16.6747 5.07538 17.4C5.24604 18.104 5.45938 18.7227 5.71538 19.256C5.99271 19.768 6.37671 20.216 6.86738 20.6C7.37938 20.9627 7.96604 21.144 8.62738 21.144C9.28871 21.144 9.89671 20.952 10.4514 20.568C9.96071 19.4587 9.44871 18.6693 8.91538 18.2L8.65938 17.976C8.59538 17.8907 8.56338 17.8053 8.56338 17.72C8.56338 17.4853 8.77671 17.368 9.20338 17.368C10.078 17.368 10.974 17.8267 11.8914 18.744C12.702 17.08 13.1074 14.9147 13.1074 12.248C13.1074 7.93867 12.3927 5.08 10.9634 3.672C10.3447 3.07467 9.68338 2.776 8.97938 2.776C8.27538 2.776 7.66738 3.05333 7.15538 3.608ZM3.31538 5.624L3.44338 5.432C3.65671 4.45067 3.99804 3.608 4.46738 2.904C4.95804 2.17867 5.43804 1.64533 5.90738 1.304C6.39804 0.941332 6.94204 0.663998 7.53938 0.471998C8.32871 0.215999 9.02204 0.0879993 9.61938 0.0879993C11.0487 0.0879993 12.2754 0.418666 13.2994 1.08C14.3447 1.74133 15.134 2.63733 15.6674 3.768C16.6487 5.92267 17.1394 8.36533 17.1394 11.096C17.1394 15.6827 16.0514 19.064 13.8754 21.24C14.878 22.3493 15.8594 22.904 16.8194 22.904C17.0967 22.904 17.2354 23 17.2354 23.192C17.2354 23.5333 16.8407 23.896 16.0514 24.28C15.262 24.6853 14.4194 24.888 13.5234 24.888L12.4994 24.792C12.222 24.7493 11.998 24.6427 11.8274 24.472C11.6567 24.3227 11.55 24.1093 11.5074 23.832L11.2834 22.936C10.2807 23.3413 9.25671 23.544 8.21138 23.544C5.54471 23.544 3.58204 22.6373 2.32338 20.824C1.06471 18.9893 0.435375 16.6747 0.435375 13.88C0.435375 12.2587 0.574042 10.776 0.851375 9.432C1.12871 8.06667 1.41671 7.10667 1.71538 6.552L2.13138 5.72C2.21671 5.528 2.35538 5.432 2.54738 5.432C2.73938 5.432 2.87804 5.45333 2.96338 5.496C3.07004 5.51733 3.14471 5.54933 3.18738 5.592C3.25138 5.61333 3.29404 5.624 3.31538 5.624ZM30.1161 8.76C29.7321 11.064 29.5401 13.9973 29.5401 17.56C29.5401 20.184 29.6468 21.912 29.8601 22.744L29.9881 23.16C29.9881 23.4373 29.7535 23.576 29.2841 23.576C27.6415 23.576 26.7028 23.1173 26.4681 22.2C26.4468 22.0933 26.3935 22.04 26.3081 22.04C26.2441 22.04 26.1801 22.0827 26.1161 22.168C25.4548 23.0427 24.4308 23.48 23.0441 23.48C22.2761 23.48 21.4761 23.288 20.6441 22.904C20.1321 22.6693 19.7161 22.264 19.3961 21.688C19.0761 21.0907 18.9161 20.3653 18.9161 19.512L19.3961 12.504C19.3961 11.032 19.2468 9.98667 18.9481 9.368C18.8415 9.13333 18.7881 8.984 18.7881 8.92C18.7881 8.792 18.8415 8.70667 18.9481 8.664C19.2895 8.55733 19.7268 8.504 20.2601 8.504C22.3295 8.504 23.3641 9.35733 23.3641 11.064C23.3641 11.5973 23.1401 12.8133 22.6921 14.712C22.2655 16.6107 22.0521 17.9653 22.0521 18.776C22.0521 19.5653 22.2228 20.1733 22.5641 20.6C22.9268 21.0267 23.4175 21.24 24.0361 21.24C24.6761 21.24 25.1775 21.016 25.5401 20.568C25.9028 20.12 26.1161 19.672 26.1801 19.224L26.2761 18.552C26.3615 17.8053 26.4041 16.4933 26.4041 14.616C26.4041 12.7387 26.3401 11.5547 26.2121 11.064C26.1055 10.552 26.0521 10.232 26.0521 10.104C26.0521 9.57067 26.4788 9.15467 27.3321 8.856C28.1855 8.536 28.9535 8.376 29.6361 8.376C29.9561 8.376 30.1161 8.504 30.1161 8.76ZM34.7031 14.872L34.7351 15.672C34.7351 15.8 34.8205 15.864 34.9911 15.864C35.6738 15.8 36.2711 15.6293 36.7831 15.352C37.2951 15.0533 37.6791 14.7227 37.9351 14.36C38.4471 13.5707 38.7245 12.888 38.7671 12.312L38.7991 11.928C38.7991 10.776 38.3405 10.2 37.4231 10.2C36.7405 10.2 36.1858 10.4987 35.7591 11.096C35.0551 12.0347 34.7031 13.2933 34.7031 14.872ZM41.6791 19.128C41.6791 19.9387 41.5085 20.6533 41.1671 21.272C40.8471 21.8693 40.4738 22.3173 40.0471 22.616C39.6418 22.8933 39.1618 23.1173 38.6071 23.288C37.9031 23.5013 37.2311 23.608 36.5911 23.608C34.7991 23.608 33.4765 22.936 32.6231 21.592C31.7698 20.248 31.3431 18.5413 31.3431 16.472C31.3431 14.3813 31.8658 12.5253 32.9111 10.904C33.9778 9.28267 35.5671 8.472 37.6791 8.472C39.5991 8.472 40.9005 9.144 41.5831 10.488C41.8605 11 41.9991 11.4907 41.9991 11.96C41.9991 12.408 41.9778 12.7707 41.9351 13.048C41.8925 13.304 41.7431 13.6987 41.4871 14.232C41.2311 14.7653 40.8898 15.2453 40.4631 15.672C40.0365 16.0987 39.3645 16.504 38.4471 16.888C37.5298 17.272 36.4525 17.528 35.2151 17.656C35.0445 17.656 34.9591 17.7307 34.9591 17.88C34.9591 18.072 35.0231 18.36 35.1511 18.744C35.3005 19.1067 35.4605 19.416 35.6311 19.672C36.1005 20.2693 36.7938 20.568 37.7111 20.568C38.6285 20.568 39.4071 20.2693 40.0471 19.672C40.3885 19.352 40.6658 18.9573 40.8791 18.488C40.9645 18.3173 41.0711 18.232 41.1991 18.232C41.3485 18.232 41.4658 18.3493 41.5511 18.584C41.6365 18.8187 41.6791 19 41.6791 19.128ZM46.4844 14.872L46.5164 15.672C46.5164 15.8 46.6017 15.864 46.7724 15.864C47.455 15.8 48.0524 15.6293 48.5644 15.352C49.0764 15.0533 49.4604 14.7227 49.7164 14.36C50.2284 13.5707 50.5057 12.888 50.5484 12.312L50.5804 11.928C50.5804 10.776 50.1217 10.2 49.2044 10.2C48.5217 10.2 47.967 10.4987 47.5404 11.096C46.8364 12.0347 46.4844 13.2933 46.4844 14.872ZM53.4604 19.128C53.4604 19.9387 53.2897 20.6533 52.9484 21.272C52.6284 21.8693 52.255 22.3173 51.8284 22.616C51.423 22.8933 50.943 23.1173 50.3884 23.288C49.6844 23.5013 49.0124 23.608 48.3724 23.608C46.5804 23.608 45.2577 22.936 44.4044 21.592C43.551 20.248 43.1244 18.5413 43.1244 16.472C43.1244 14.3813 43.647 12.5253 44.6924 10.904C45.759 9.28267 47.3484 8.472 49.4604 8.472C51.3804 8.472 52.6817 9.144 53.3644 10.488C53.6417 11 53.7804 11.4907 53.7804 11.96C53.7804 12.408 53.759 12.7707 53.7164 13.048C53.6737 13.304 53.5244 13.6987 53.2684 14.232C53.0124 14.7653 52.671 15.2453 52.2444 15.672C51.8177 16.0987 51.1457 16.504 50.2284 16.888C49.311 17.272 48.2337 17.528 46.9964 17.656C46.8257 17.656 46.7404 17.7307 46.7404 17.88C46.7404 18.072 46.8044 18.36 46.9324 18.744C47.0817 19.1067 47.2417 19.416 47.4124 19.672C47.8817 20.2693 48.575 20.568 49.4924 20.568C50.4097 20.568 51.1884 20.2693 51.8284 19.672C52.1697 19.352 52.447 18.9573 52.6604 18.488C52.7457 18.3173 52.8524 18.232 52.9804 18.232C53.1297 18.232 53.247 18.3493 53.3324 18.584C53.4177 18.8187 53.4604 19 53.4604 19.128ZM55.2256 23.224C55.6096 20.92 55.8016 18.1573 55.8016 14.936C55.8016 11.7147 55.7056 9.624 55.5136 8.664C55.5136 8.38667 55.8336 8.248 56.4736 8.248C57.455 8.248 58.1056 8.62133 58.4256 9.368C58.447 9.432 58.5003 9.464 58.5856 9.464C58.671 9.464 58.735 9.44267 58.7776 9.4C59.439 8.71733 60.463 8.376 61.8496 8.376C63.2363 8.376 64.335 8.728 65.1456 9.432C65.9563 10.136 66.3616 11.16 66.3616 12.504C66.3616 13.3147 66.287 14.4667 66.1376 15.96C66.0096 17.4533 65.9456 18.5627 65.9456 19.288C65.9456 21.016 66.2336 22.264 66.8096 23.032C66.895 23.1387 66.9376 23.2453 66.9376 23.352C66.9376 23.6293 66.639 23.768 66.0416 23.768C63.3963 23.768 62.0736 22.5947 62.0736 20.248C62.0736 19.352 62.2763 18.104 62.6816 16.504C63.087 14.904 63.2896 13.688 63.2896 12.856C63.2896 11.1493 62.5856 10.296 61.1776 10.296C60.495 10.296 59.9723 10.4987 59.6096 10.904C59.2683 11.3093 59.0763 11.7787 59.0336 12.312C58.991 12.824 58.9696 13.8053 58.9696 15.256C58.9696 17.4747 59.0443 19.4053 59.1936 21.048L59.2576 21.752C59.2576 22.3493 58.863 22.808 58.0736 23.128C57.3056 23.4693 56.6336 23.64 56.0576 23.64C55.503 23.64 55.2256 23.5013 55.2256 23.224ZM77.7349 18.616C77.7349 19.5333 77.5535 20.3333 77.1909 21.016C76.8495 21.6987 76.4549 22.2 76.0069 22.52C75.5589 22.84 75.0255 23.096 74.4069 23.288C73.5962 23.544 72.8602 23.672 72.1989 23.672C70.8122 23.672 69.6602 23.4053 68.7429 22.872C67.8255 22.3173 67.3669 21.4427 67.3669 20.248C67.3669 19.544 67.5589 18.968 67.9429 18.52C68.5402 17.8587 69.2549 17.528 70.0869 17.528C70.3429 17.528 70.4709 17.6453 70.4709 17.88C70.4709 17.9013 70.4175 18.072 70.3109 18.392C70.2255 18.6907 70.1829 19.0747 70.1829 19.544C70.1829 20.0133 70.3642 20.4293 70.7269 20.792C71.1109 21.1547 71.5695 21.336 72.1029 21.336C72.6362 21.336 73.0629 21.2507 73.3829 21.08C73.7029 20.888 73.9269 20.6533 74.0549 20.376C74.2469 19.992 74.3429 19.6293 74.3429 19.288C74.3429 18.6693 74.0335 18.136 73.4149 17.688C72.7962 17.24 72.1135 16.888 71.3669 16.632C70.6202 16.376 69.9375 15.9493 69.3189 15.352C68.7002 14.7547 68.3909 14.008 68.3909 13.112C68.3909 11.576 68.8709 10.424 69.8309 9.656C70.8122 8.888 72.1349 8.504 73.7989 8.504C74.5242 8.504 75.2815 8.61067 76.0709 8.824C76.8815 9.016 77.2869 9.35733 77.2869 9.848C77.2869 10.3173 77.2015 10.7547 77.0309 11.16C76.8815 11.5653 76.6895 11.768 76.4549 11.768C76.3269 11.768 76.2415 11.7253 76.1989 11.64C76.1562 11.5333 76.0815 11.416 75.9749 11.288C75.8682 11.16 75.6122 11 75.2069 10.808C74.8015 10.5947 74.4495 10.488 74.1509 10.488C73.8735 10.488 73.6815 10.4987 73.5749 10.52C73.4895 10.52 73.3295 10.552 73.0949 10.616C72.8602 10.6587 72.6469 10.7333 72.4549 10.84C71.9642 11.1173 71.7189 11.5227 71.7189 12.056C71.7189 12.3973 71.7935 12.6533 71.9429 12.824C72.0922 12.9733 72.2095 13.0907 72.2949 13.176C72.3802 13.2613 72.5295 13.368 72.7429 13.496C72.9562 13.6027 73.1055 13.6773 73.1909 13.72C73.2762 13.7627 73.4682 13.8587 73.7669 14.008C74.0655 14.136 74.2575 14.2213 74.3429 14.264C76.6042 15.3307 77.7349 16.7813 77.7349 18.616ZM83.3269 4.696L83.1349 16.44C83.1349 20.1093 83.2522 22.3067 83.4869 23.032C83.5509 23.16 83.5829 23.288 83.5829 23.416C83.5829 23.672 83.2735 23.8 82.6549 23.8C82.0362 23.8 81.3429 23.64 80.5749 23.32C79.8282 23.0213 79.4549 22.6267 79.4549 22.136C79.8815 19.1493 80.0949 15.16 80.0949 10.168L79.9669 5.272C79.9242 4.67467 79.7962 4.16267 79.5829 3.736C79.3909 3.30933 79.1989 3.032 79.0069 2.904L78.7509 2.744C78.6015 2.65867 78.5269 2.56267 78.5269 2.456C78.5269 2.15733 78.9855 1.79467 79.9029 1.368C80.8415 0.919999 81.7482 0.695999 82.6229 0.695999C82.9642 0.695999 83.1562 0.813332 83.1989 1.048C83.2842 1.60267 83.3269 2.81867 83.3269 4.696ZM96.1949 13.4L96.1309 17.496C96.1309 20.3333 96.4402 22.04 97.0589 22.616C97.1442 22.7013 97.1869 22.7973 97.1869 22.904C97.1869 23.224 96.4935 23.384 95.1069 23.384C93.7415 23.384 93.0162 22.9787 92.9309 22.168C92.9095 21.976 92.8989 21.5813 92.8989 20.984L93.0269 15.864C93.0269 15.7147 92.9415 15.64 92.7709 15.64C91.7469 15.64 90.7869 15.928 89.8909 16.504C88.9949 17.08 88.5469 17.816 88.5469 18.712C88.5469 19.1813 88.6749 19.576 88.9309 19.896C89.1869 20.216 89.4962 20.376 89.8589 20.376C90.2429 20.376 90.5522 20.3013 90.7869 20.152C91.0429 20.0027 91.1922 19.9173 91.2349 19.896C91.5975 19.9387 91.7789 20.3227 91.7789 21.048C91.7789 21.752 91.4482 22.328 90.7869 22.776C90.1255 23.2027 89.4322 23.416 88.7069 23.416C87.9815 23.416 87.3522 23.288 86.8189 23.032C86.3069 22.776 85.9335 22.488 85.6989 22.168C85.4642 21.848 85.2722 21.4853 85.1229 21.08C84.9735 20.5893 84.8989 20.1627 84.8989 19.8C84.8989 18.3067 85.3682 17.112 86.3069 16.216C87.2455 15.32 88.4509 14.68 89.9229 14.296C91.8642 13.912 92.8775 13.56 92.9629 13.24C93.0269 13.0053 93.0589 12.6107 93.0589 12.056C93.0589 10.9253 92.4829 10.36 91.3309 10.36C90.8402 10.36 90.4029 10.52 90.0189 10.84C89.6349 11.1387 89.4429 11.5227 89.4429 11.992L89.6349 12.76C89.5922 13.1227 89.2082 13.336 88.4829 13.4L88.1309 13.432C87.4909 13.432 86.9789 13.272 86.5949 12.952C86.2322 12.632 86.0509 12.2053 86.0509 11.672C86.0509 11.3307 86.1575 10.9573 86.3709 10.552C86.6055 10.1253 86.8935 9.784 87.2349 9.528C87.5762 9.272 88.0989 9.048 88.8029 8.856C89.5282 8.64267 90.2215 8.536 90.8829 8.536C91.5442 8.536 92.0562 8.55733 92.4189 8.6C92.7815 8.64267 93.2722 8.74933 93.8909 8.92C94.5309 9.06933 95.0535 9.368 95.4589 9.816C95.8855 10.264 96.1095 10.744 96.1309 11.256C96.1735 11.7467 96.1949 12.4613 96.1949 13.4ZM98.1319 23.224C98.5159 20.92 98.7079 18.1573 98.7079 14.936C98.7079 11.7147 98.6119 9.624 98.4199 8.664C98.4199 8.38667 98.7399 8.248 99.3799 8.248C100.361 8.248 101.012 8.62133 101.332 9.368C101.353 9.432 101.407 9.464 101.492 9.464C101.577 9.464 101.641 9.44267 101.684 9.4C102.345 8.71733 103.369 8.376 104.756 8.376C106.143 8.376 107.241 8.728 108.052 9.432C108.863 10.136 109.268 11.16 109.268 12.504C109.268 13.3147 109.193 14.4667 109.044 15.96C108.916 17.4533 108.852 18.5627 108.852 19.288C108.852 21.016 109.14 22.264 109.716 23.032C109.801 23.1387 109.844 23.2453 109.844 23.352C109.844 23.6293 109.545 23.768 108.948 23.768C106.303 23.768 104.98 22.5947 104.98 20.248C104.98 19.352 105.183 18.104 105.588 16.504C105.993 14.904 106.196 13.688 106.196 12.856C106.196 11.1493 105.492 10.296 104.084 10.296C103.401 10.296 102.879 10.4987 102.516 10.904C102.175 11.3093 101.983 11.7787 101.94 12.312C101.897 12.824 101.876 13.8053 101.876 15.256C101.876 17.4747 101.951 19.4053 102.1 21.048L102.164 21.752C102.164 22.3493 101.769 22.808 100.98 23.128C100.212 23.4693 99.5399 23.64 98.9639 23.64C98.4092 23.64 98.1319 23.5013 98.1319 23.224ZM117.313 8.632C117.697 8.632 118.038 8.68533 118.337 8.792C118.657 8.87733 118.828 8.92 118.849 8.92L119.041 8.76L118.913 5.272C118.87 4.67467 118.742 4.16267 118.529 3.736C118.316 3.30933 118.124 3.032 117.953 2.904L117.665 2.744C117.537 2.65867 117.473 2.56267 117.473 2.456C117.473 2.136 117.964 1.76267 118.945 1.336C119.948 0.909332 120.726 0.695999 121.281 0.695999C121.836 0.695999 122.134 0.813332 122.177 1.048C122.284 1.77333 122.337 3.16 122.337 5.208C122.337 7.23467 122.284 9.22933 122.177 11.192C122.092 13.1547 122.049 15.384 122.049 17.88C122.049 20.3547 122.209 21.912 122.529 22.552C122.614 22.7013 122.657 22.84 122.657 22.968C122.657 23.288 122.198 23.448 121.281 23.448C119.532 23.448 118.657 23.032 118.657 22.2C118.614 21.8587 118.593 21.336 118.593 20.632C118.593 19.9067 118.657 18.5733 118.785 16.632C118.934 14.6693 119.009 13.1653 119.009 12.12C119.009 11.0533 118.476 10.52 117.409 10.52C116.364 10.52 115.564 11.1387 115.009 12.376C114.454 13.6133 114.177 14.8507 114.177 16.088C114.177 18.712 114.838 20.024 116.161 20.024C116.353 20.024 116.534 19.992 116.705 19.928C116.897 19.8427 117.014 19.8 117.057 19.8C117.228 19.8 117.356 19.9067 117.441 20.12C117.548 20.3333 117.601 20.5467 117.601 20.76C117.601 21.4853 117.313 22.104 116.737 22.616C116.161 23.1067 115.457 23.352 114.625 23.352C113.345 23.352 112.374 22.7973 111.713 21.688C111.073 20.5573 110.753 19.16 110.753 17.496C110.753 15.384 111.254 13.4213 112.257 11.608C112.769 10.712 113.462 9.99733 114.337 9.464C115.212 8.90933 116.204 8.632 117.313 8.632Z" fill="black"/>
</svg>
