<svg width="149" height="27" viewBox="0 0 149 27" fill="none" xmlns="http://www.w3.org/2000/svg">
<path opacity="0.5" d="M15.605 23.12C15.5517 23.3867 15.4183 23.6 15.205 23.76C14.9917 23.9467 14.6983 24.04 14.325 24.04C13.9783 24.04 13.5783 23.9467 13.125 23.76C12.1917 23.3867 11.2317 23.0667 10.245 22.8C9.285 22.5333 8.51167 22.4 7.925 22.4C7.47167 22.4 7.07167 22.48 6.725 22.64C6.405 22.8 6.19167 23.08 6.085 23.48C5.95167 23.48 5.83167 23.3333 5.725 23.04C5.645 22.7733 5.605 22.4533 5.605 22.08C5.605 21.6267 5.75167 21.2 6.045 20.8C6.365 20.4 6.925 20.1867 7.725 20.16C7.03167 19.52 6.49833 18.8 6.125 18C5.75167 17.2 5.565 16.1733 5.565 14.92C5.565 14.1733 5.645 13.4267 5.805 12.68C5.99167 11.9333 6.23167 11.1867 6.525 10.44C6.95167 10.4933 7.33833 10.5333 7.685 10.56C8.03167 10.5867 8.31167 10.6133 8.525 10.64C8.79167 10.6667 9.01833 10.68 9.205 10.68C8.27167 10.6 7.27167 10.44 6.205 10.2C5.13833 9.96 4.15167 9.61333 3.245 9.16C2.33833 8.68 1.59167 8.08 1.005 7.36C0.418333 6.64 0.125 5.74667 0.125 4.68C0.125 4.17333 0.218333 3.72 0.405 3.32C0.591667 2.89333 0.805 2.54667 1.045 2.28C1.285 2.01333 1.51167 1.81333 1.725 1.68C1.93833 1.52 2.085 1.44 2.165 1.44C2.21833 1.44 2.245 1.48 2.245 1.56C2.245 1.66667 2.23167 1.76 2.205 1.84C2.205 1.92 2.205 2.01333 2.205 2.12C2.205 2.73333 2.325 3.36 2.565 4C2.83167 4.61333 3.17833 5.21333 3.605 5.8C4.03167 6.36 4.51167 6.86667 5.045 7.32C5.605 7.77333 6.165 8.12 6.725 8.36C6.83167 8.41333 6.95167 8.46667 7.085 8.52C7.245 8.54667 7.35167 8.58667 7.405 8.64V8.6L7.445 8.64C8.005 7.73333 8.65833 6.90667 9.405 6.16C10.1783 5.38667 11.0183 4.73333 11.925 4.2C12.8583 3.64 13.8583 3.21333 14.925 2.92C15.9917 2.6 17.085 2.44 18.205 2.44C18.6317 2.44 19.165 2.49333 19.805 2.6C20.445 2.70667 21.0583 2.90667 21.645 3.2C22.2317 3.46667 22.725 3.85333 23.125 4.36C23.5517 4.84 23.765 5.45333 23.765 6.2C23.765 6.46667 23.6983 6.76 23.565 7.08C23.4317 7.4 23.205 7.73333 22.885 8.08C22.5917 8.4 22.1783 8.72 21.645 9.04C21.1383 9.33333 20.4983 9.6 19.725 9.84C20.0717 9.81333 20.3917 9.74667 20.685 9.64C21.005 9.53333 21.2583 9.44 21.445 9.36C21.6317 9.76 21.7517 10.16 21.805 10.56C21.885 10.96 21.925 11.3467 21.925 11.72C21.925 12.4933 21.805 13.2267 21.565 13.92C21.325 14.6133 21.0583 15.2267 20.765 15.76C20.445 16.3733 20.0717 16.9467 19.645 17.48C19.1383 18.12 18.5517 18.7067 17.885 19.24C17.325 19.6933 16.6583 20.1467 15.885 20.6C15.1117 21.0267 14.2583 21.3333 13.325 21.52L13.285 21.48C13.365 21.56 13.4717 21.6267 13.605 21.68C13.7383 21.7333 13.885 21.7733 14.045 21.8C14.205 21.8267 14.4183 21.84 14.685 21.84C14.8717 21.84 15.005 21.7733 15.085 21.64C15.165 21.5333 15.2183 21.48 15.245 21.48V21.44C15.2717 21.44 15.3383 21.5733 15.445 21.84C15.5783 22.1067 15.645 22.4267 15.645 22.8C15.645 22.8533 15.6317 22.9067 15.605 22.96C15.605 23.0133 15.605 23.0667 15.605 23.12ZM11.605 8.92C11.5783 8.97333 11.5383 9.02667 11.485 9.08C11.4317 9.13333 11.3783 9.2 11.325 9.28C11.2983 9.33333 11.2583 9.4 11.205 9.48C11.525 9.50667 11.8583 9.53333 12.205 9.56C12.5517 9.56 12.9117 9.56 13.285 9.56C13.4183 9.16 13.5917 8.81333 13.805 8.52C14.045 8.22667 14.2717 7.98667 14.485 7.8C14.7517 7.58667 15.0317 7.4 15.325 7.24C15.485 7.16 15.685 7.08 15.925 7C16.1117 6.94667 16.3383 6.89333 16.605 6.84C16.8717 6.78667 17.1517 6.76 17.445 6.76C17.8983 6.76 18.3783 6.85333 18.885 7.04C19.3917 7.2 19.8983 7.50667 20.405 7.96C20.5383 7.88 20.645 7.81333 20.725 7.76C20.8317 7.68 20.9383 7.6 21.045 7.52C21.045 7.52 21.1117 7.46667 21.245 7.36C21.3783 7.22667 21.5117 7.08 21.645 6.92C21.7783 6.73333 21.8983 6.52 22.005 6.28C22.1383 6.04 22.205 5.78667 22.205 5.52C22.205 5.17333 21.9917 4.84 21.565 4.52C21.165 4.2 20.5517 4.04 19.725 4.04C18.7917 4.04 17.645 4.37333 16.285 5.04C14.925 5.70667 13.365 7 11.605 8.92ZM18.725 8.8C18.4317 8.37333 17.965 8.16 17.325 8.16C16.8983 8.16 16.5517 8.22667 16.285 8.36C16.0183 8.46667 15.805 8.6 15.645 8.76C15.485 8.92 15.3783 9.08 15.325 9.24C15.2717 9.37333 15.2317 9.45333 15.205 9.48C15.765 9.42667 16.3383 9.34667 16.925 9.24C17.5117 9.13333 18.1117 8.98667 18.725 8.8ZM10.845 20.36C10.925 20.3867 11.0717 20.4 11.285 20.4C11.605 20.4 11.9917 20.3333 12.445 20.2C12.8983 20.04 13.405 19.76 13.965 19.36C14.525 18.96 15.125 18.4 15.765 17.68C16.4317 16.9333 17.125 15.9733 17.845 14.8C18.405 13.8667 18.7917 13.0667 19.005 12.4C19.245 11.7067 19.365 11.0933 19.365 10.56C19.365 10.2933 19.3517 10.1067 19.325 10C18.7117 10.2133 18.045 10.4267 17.325 10.64C16.605 10.8267 15.7783 10.9467 14.845 11C14.845 11.96 15.1117 12.5333 15.645 12.72C15.645 12.7467 15.6583 12.76 15.685 12.76L15.725 12.8C15.725 12.9067 15.6183 12.96 15.405 12.96C14.845 12.96 14.3517 12.8 13.925 12.48C13.525 12.1333 13.285 11.6667 13.205 11.08C12.7783 11.08 12.325 11.0667 11.845 11.04C11.365 11.0133 10.8583 10.9733 10.325 10.92C9.95167 11.6133 9.61833 12.44 9.325 13.4C9.03167 14.3333 8.885 15.3333 8.885 16.4C8.885 16.8 8.91167 17.2 8.965 17.6C9.01833 18 9.11167 18.4133 9.245 18.84C9.325 19.08 9.445 19.3067 9.605 19.52C9.73833 19.7067 9.89833 19.88 10.085 20.04C10.2983 20.2 10.5517 20.3067 10.845 20.36ZM33.8175 17.32C33.9242 16.9467 34.0975 16.76 34.3375 16.76C34.4442 16.76 34.5375 16.8133 34.6175 16.92C34.7242 17.0267 34.7775 17.1733 34.7775 17.36C34.7775 17.8133 34.6308 18.2533 34.3375 18.68C34.0442 19.08 33.6708 19.4533 33.2175 19.8C32.7908 20.12 32.3108 20.4 31.7775 20.64C31.2708 20.8533 30.8042 20.9733 30.3775 21C29.8175 21 29.3508 20.9467 28.9775 20.84C28.6042 20.7067 28.3108 20.5467 28.0975 20.36C27.8842 20.1467 27.7375 19.92 27.6575 19.68C27.5775 19.4133 27.5375 19.1467 27.5375 18.88C27.5375 18.7467 27.5375 18.64 27.5375 18.56C27.5642 18.4533 27.5908 18.3467 27.6175 18.24C26.9242 19.12 26.2842 19.8133 25.6975 20.32C25.1108 20.8 24.5775 21.04 24.0975 21.04C23.8308 21.04 23.6175 21 23.4575 20.92C23.3508 20.8667 23.2708 20.8133 23.2175 20.76C21.8308 19.5333 21.4442 18 22.0575 16.16C22.3242 15.3067 22.6042 14.64 22.8975 14.16C23.1908 13.6533 23.4575 13.2 23.6975 12.8C23.9375 12.4 24.1242 12 24.2575 11.6C24.4175 11.1733 24.4975 10.6133 24.4975 9.92C24.4975 9.73333 24.4575 9.56 24.3775 9.4C24.2975 9.21333 24.2575 9.09333 24.2575 9.04C24.2575 8.96 24.2975 8.92 24.3775 8.92C24.4308 8.92 24.6175 8.96 24.9375 9.04C25.2842 9.09333 25.6442 9.21333 26.0175 9.4C26.4175 9.56 26.7775 9.81333 27.0975 10.16C27.4175 10.5067 27.5775 10.96 27.5775 11.52C27.5775 12.1333 27.4175 12.7467 27.0975 13.36C26.7775 13.9733 26.4308 14.5867 26.0575 15.2C25.6842 15.8133 25.3375 16.4267 25.0175 17.04C24.6975 17.6267 24.5375 18.2 24.5375 18.76C24.5375 18.8933 24.5508 18.9867 24.5775 19.04C24.6042 19.0667 24.6442 19.1067 24.6975 19.16C24.7508 19.2133 24.8042 19.24 24.8575 19.24C25.1242 19.24 25.4442 19.0933 25.8175 18.8C26.1908 18.48 26.5642 18.1067 26.9375 17.68C27.3375 17.2533 27.7108 16.8133 28.0575 16.36C28.4042 15.9067 28.6842 15.5333 28.8975 15.24C29.2442 14.5467 29.6442 13.7867 30.0975 12.96C30.5508 12.1067 30.7775 11.2667 30.7775 10.44C30.7775 10.2267 30.7108 10.0133 30.5775 9.8C30.4708 9.56 30.4175 9.36 30.4175 9.2C30.4175 9.12 30.4575 9.08 30.5375 9.08C30.8842 9.08 31.2575 9.13333 31.6575 9.24C32.2708 9.42667 32.8042 9.70667 33.2575 10.08C33.7375 10.4267 34.0042 10.9867 34.0575 11.76C34.0575 12.0533 33.9642 12.44 33.7775 12.92C33.5908 13.4 33.3642 13.8933 33.0975 14.4C32.8575 14.9067 32.6042 15.4133 32.3375 15.92C32.0708 16.4 31.8442 16.8 31.6575 17.12C31.4708 17.44 31.2975 17.8267 31.1375 18.28C30.9775 18.7333 30.8708 19.0667 30.8175 19.28C30.8175 19.52 30.8708 19.64 30.9775 19.64C31.5642 19.5333 32.1375 19.2667 32.6975 18.84C33.2575 18.3867 33.6308 17.88 33.8175 17.32ZM43.2953 17.44C43.4553 17.2 43.6153 17.04 43.7753 16.96C43.962 16.88 44.122 16.8667 44.2553 16.92C44.3886 16.9733 44.4686 17.0933 44.4953 17.28C44.522 17.44 44.4553 17.64 44.2953 17.88C43.7353 18.7067 42.9353 19.4533 41.8953 20.12C40.8553 20.76 39.482 21.1067 37.7753 21.16C36.922 21.2133 36.1486 21.08 35.4553 20.76C34.762 20.44 34.3086 19.8267 34.0953 18.92C33.9086 18.3067 33.8686 17.6667 33.9753 17C34.082 16.3333 34.282 15.68 34.5753 15.04C34.842 14.3733 35.1753 13.7467 35.5753 13.16C35.9753 12.5733 36.3886 12.04 36.8153 11.56C37.4553 10.8667 38.0953 10.3467 38.7353 10C39.3753 9.65333 40.002 9.46667 40.6153 9.44C41.0953 9.44 41.602 9.52 42.1353 9.68C42.6953 9.81333 43.1486 10.0667 43.4953 10.44C43.7353 10.7333 43.8553 11.0933 43.8553 11.52C43.882 11.9467 43.6953 12.48 43.2953 13.12C43.2153 13.2533 43.122 13.4 43.0153 13.56C42.562 14.12 42.0686 14.5867 41.5353 14.96C41.0286 15.3067 40.5086 15.5867 39.9753 15.8C39.4686 15.9867 38.9886 16.12 38.5353 16.2C38.1086 16.2533 37.762 16.2933 37.4953 16.32C37.0686 17.1467 36.8286 17.8133 36.7753 18.32C36.7753 18.5867 36.842 18.84 36.9753 19.08C37.1086 19.32 37.362 19.5067 37.7353 19.64C38.4286 19.7467 39.122 19.7467 39.8153 19.64C40.402 19.56 41.0153 19.36 41.6553 19.04C42.2953 18.72 42.842 18.1867 43.2953 17.44ZM38.6953 14.2C38.562 14.36 38.442 14.5333 38.3353 14.72C38.2553 14.88 38.1753 15.04 38.0953 15.2C38.5753 15.12 39.0553 14.9467 39.5353 14.68C40.0153 14.4133 40.4553 14.1067 40.8553 13.76C41.2553 13.4133 41.5886 13.08 41.8553 12.76C42.1486 12.44 42.322 12.2 42.3753 12.04C42.3753 11.9867 42.3753 11.96 42.3753 11.96C42.402 11.9333 42.4153 11.9067 42.4153 11.88C42.4686 11.64 42.442 11.4667 42.3353 11.36C42.2553 11.2267 42.1753 11.1333 42.0953 11.08C42.0153 11.0533 41.9753 11.0267 41.9753 11C41.682 10.9467 41.2686 11.1467 40.7353 11.6C40.2286 12.0533 39.5486 12.92 38.6953 14.2ZM52.6313 17.44C52.7913 17.2 52.9513 17.04 53.1113 16.96C53.2979 16.88 53.4579 16.8667 53.5913 16.92C53.7246 16.9733 53.8046 17.0933 53.8313 17.28C53.8579 17.44 53.7913 17.64 53.6313 17.88C53.0713 18.7067 52.2713 19.4533 51.2313 20.12C50.1913 20.76 48.8179 21.1067 47.1113 21.16C46.2579 21.2133 45.4846 21.08 44.7913 20.76C44.0979 20.44 43.6446 19.8267 43.4312 18.92C43.2446 18.3067 43.2046 17.6667 43.3112 17C43.4179 16.3333 43.6179 15.68 43.9112 15.04C44.1779 14.3733 44.5113 13.7467 44.9113 13.16C45.3113 12.5733 45.7246 12.04 46.1513 11.56C46.7913 10.8667 47.4313 10.3467 48.0713 10C48.7113 9.65333 49.3379 9.46667 49.9513 9.44C50.4313 9.44 50.9379 9.52 51.4713 9.68C52.0313 9.81333 52.4846 10.0667 52.8313 10.44C53.0713 10.7333 53.1913 11.0933 53.1913 11.52C53.2179 11.9467 53.0313 12.48 52.6313 13.12C52.5513 13.2533 52.4579 13.4 52.3513 13.56C51.8979 14.12 51.4046 14.5867 50.8713 14.96C50.3646 15.3067 49.8446 15.5867 49.3112 15.8C48.8046 15.9867 48.3246 16.12 47.8713 16.2C47.4446 16.2533 47.0979 16.2933 46.8313 16.32C46.4046 17.1467 46.1646 17.8133 46.1113 18.32C46.1113 18.5867 46.1779 18.84 46.3113 19.08C46.4446 19.32 46.6979 19.5067 47.0713 19.64C47.7646 19.7467 48.4579 19.7467 49.1513 19.64C49.7379 19.56 50.3513 19.36 50.9913 19.04C51.6313 18.72 52.1779 18.1867 52.6313 17.44ZM48.0313 14.2C47.8979 14.36 47.7779 14.5333 47.6713 14.72C47.5913 14.88 47.5113 15.04 47.4313 15.2C47.9113 15.12 48.3913 14.9467 48.8713 14.68C49.3513 14.4133 49.7913 14.1067 50.1913 13.76C50.5913 13.4133 50.9246 13.08 51.1913 12.76C51.4846 12.44 51.6579 12.2 51.7113 12.04C51.7113 11.9867 51.7113 11.96 51.7113 11.96C51.7379 11.9333 51.7513 11.9067 51.7513 11.88C51.8046 11.64 51.7779 11.4667 51.6713 11.36C51.5913 11.2267 51.5113 11.1333 51.4313 11.08C51.3513 11.0533 51.3113 11.0267 51.3113 11C51.0179 10.9467 50.6046 11.1467 50.0713 11.6C49.5646 12.0533 48.8846 12.92 48.0313 14.2ZM64.9578 17.32C65.0645 16.9467 65.2378 16.76 65.4778 16.76C65.7445 16.76 65.8778 16.96 65.8778 17.36C65.8778 17.7867 65.7578 18.2267 65.5178 18.68C65.2778 19.1067 64.9711 19.4933 64.5978 19.84C64.2245 20.1867 63.8111 20.4667 63.3578 20.68C62.9045 20.8933 62.4645 21 62.0378 21C61.3711 21 60.8245 20.9467 60.3978 20.84C59.9978 20.7333 59.6778 20.5867 59.4378 20.4C59.1978 20.2133 59.0245 19.9867 58.9178 19.72C58.8378 19.4533 58.7978 19.1733 58.7978 18.88C58.7978 18.5867 58.8245 18.3067 58.8778 18.04C58.9578 17.7733 59.0245 17.56 59.0778 17.4C59.1311 17.16 59.2645 16.8 59.4778 16.32C59.6378 15.92 59.8778 15.3867 60.1978 14.72C60.5445 14.0533 60.9845 13.1867 61.5178 12.12C61.5445 12.0933 61.5711 12.0533 61.5978 12C61.6511 11.8933 61.6778 11.8133 61.6778 11.76C61.6778 11.7067 61.6511 11.68 61.5978 11.68C61.5445 11.68 61.3578 11.8133 61.0378 12.08C60.7178 12.32 60.3178 12.6533 59.8378 13.08C59.3845 13.5067 58.8911 14 58.3578 14.56C57.8511 15.12 57.3711 15.7067 56.9178 16.32C56.4645 16.9333 56.0911 17.56 55.7978 18.2C55.5045 18.8133 55.3578 19.4 55.3578 19.96C55.3578 20.1467 55.3711 20.3067 55.3978 20.44C55.4245 20.5733 55.4378 20.6933 55.4378 20.8C55.4378 20.88 55.3978 20.9333 55.3178 20.96C55.2378 20.9867 55.1711 21 55.1178 21C54.5311 20.92 54.0645 20.7867 53.7178 20.6C53.3711 20.4133 53.1045 20.2 52.9178 19.96C52.7045 19.72 52.5711 19.4533 52.5178 19.16C52.4378 18.8667 52.3978 18.5867 52.3978 18.32C52.3978 17.5467 52.6378 16.7333 53.1178 15.88C53.2778 15.5867 53.5045 15.16 53.7978 14.6C54.0911 14.0133 54.3845 13.4 54.6778 12.76C54.9978 12.12 55.2645 11.4933 55.4778 10.88C55.6911 10.24 55.7978 9.73333 55.7978 9.36C55.7978 9.2 55.7578 9.04 55.6778 8.88C55.5978 8.72 55.5578 8.6 55.5578 8.52C55.5578 8.44 55.5978 8.4 55.6778 8.4C55.7311 8.4 55.9178 8.42667 56.2378 8.48C56.5845 8.53333 56.9445 8.65333 57.3178 8.84C57.7178 9.02667 58.0778 9.30667 58.3978 9.68C58.7178 10.0267 58.8778 10.4933 58.8778 11.08C58.8778 11.1067 58.7978 11.36 58.6378 11.84C58.5045 12.2933 58.2645 12.8533 57.9178 13.52C58.3178 13.0933 58.7445 12.64 59.1978 12.16C59.6511 11.68 60.1045 11.24 60.5578 10.84C61.0111 10.44 61.4511 10.1067 61.8778 9.84C62.3311 9.57333 62.7311 9.44 63.0778 9.44C63.1845 9.44 63.3578 9.50667 63.5978 9.64C63.8378 9.74667 64.0911 9.90667 64.3578 10.12C64.6245 10.3333 64.8511 10.5867 65.0378 10.88C65.2511 11.1733 65.3578 11.4933 65.3578 11.84C65.3578 12.0533 65.2645 12.36 65.0778 12.76C64.9178 13.1333 64.7045 13.5733 64.4378 14.08C64.1711 14.5867 63.8778 15.1333 63.5578 15.72C63.2378 16.28 62.9311 16.84 62.6378 17.4C62.6111 17.4 62.5978 17.4267 62.5978 17.48C62.5978 17.5067 62.5845 17.5333 62.5578 17.56C62.3978 17.8267 62.2511 18.12 62.1178 18.44C62.0111 18.7333 61.9578 19 61.9578 19.24C61.9578 19.5067 62.1045 19.64 62.3978 19.64C62.7445 19.64 63.0511 19.56 63.3178 19.4C63.5845 19.24 63.8245 19.0533 64.0378 18.84C64.2511 18.6 64.4378 18.3467 64.5978 18.08C64.7578 17.8133 64.8778 17.56 64.9578 17.32ZM74.0263 13.72C74.0529 13.7467 74.0663 13.7867 74.0663 13.84C74.0663 13.8133 74.0663 13.8533 74.0663 13.96C74.0663 14.0667 73.8929 14.12 73.5463 14.12C73.3596 14.12 73.1329 14.08 72.8663 14C72.6263 13.8933 72.3863 13.7467 72.1463 13.56C71.9329 13.3733 71.7463 13.1467 71.5863 12.88C71.4263 12.5867 71.3463 12.24 71.3463 11.84C71.3463 11.68 71.3596 11.5467 71.3863 11.44C71.0929 11.4933 70.8663 11.5733 70.7063 11.68C70.5463 11.7867 70.4263 11.9067 70.3463 12.04C70.2663 12.1733 70.2129 12.3067 70.1863 12.44C70.1863 12.5733 70.1863 12.68 70.1863 12.76C70.1863 13.0267 70.2663 13.32 70.4263 13.64C70.5863 13.9333 70.7596 14.2667 70.9463 14.64C71.1596 15.0133 71.3463 15.4133 71.5063 15.84C71.6929 16.2667 71.7862 16.72 71.7862 17.2C71.7862 17.76 71.6263 18.2933 71.3063 18.8C71.0129 19.28 70.6263 19.7067 70.1463 20.08C69.6663 20.4267 69.1196 20.7067 68.5063 20.92C67.8929 21.1067 67.2796 21.2 66.6663 21.2C66.0263 21.2 65.5329 21.12 65.1862 20.96C64.8129 20.7733 64.5462 20.56 64.3862 20.32C64.1996 20.08 64.0929 19.8533 64.0662 19.64C64.0129 19.4 63.9862 19.24 63.9862 19.16C63.9862 18.7067 64.1196 18.28 64.3862 17.88C64.6262 17.48 64.9329 17.12 65.3062 16.8C65.6529 16.4533 66.0129 16.16 66.3863 15.92C66.7863 15.68 67.1329 15.4933 67.4263 15.36C67.2396 15.0933 67.0263 14.76 66.7863 14.36C66.5729 13.9333 66.4663 13.36 66.4663 12.64C66.4663 12.2667 66.5463 11.88 66.7063 11.48C66.8663 11.0533 67.1063 10.6667 67.4263 10.32C67.7463 9.97333 68.1463 9.69333 68.6263 9.48C69.1063 9.24 69.6663 9.12 70.3063 9.12C70.6529 9.12 70.9729 9.16 71.2663 9.24C71.5863 9.29333 71.8529 9.36 72.0663 9.44C72.0663 9.44 72.1196 9.46667 72.2263 9.52C72.3596 9.57333 72.4929 9.65333 72.6263 9.76C72.7596 9.84 72.8796 9.97333 72.9863 10.16C73.1196 10.32 73.1996 10.52 73.2263 10.76C73.2263 10.76 73.2129 10.7067 73.1863 10.6C73.1863 10.4667 73.1596 10.32 73.1063 10.16C73.0529 10 72.9463 9.84 72.7863 9.68C72.6529 9.49333 72.4529 9.33333 72.1863 9.2C72.5063 8.61333 72.7729 8.24 72.9863 8.08C73.2263 7.89333 73.4396 7.8 73.6263 7.8C73.7329 7.8 73.9196 7.82667 74.1863 7.88C74.4796 7.93333 74.7729 8.01333 75.0663 8.12C75.3596 8.2 75.6129 8.30667 75.8263 8.44C76.0663 8.54667 76.1862 8.66667 76.1862 8.8C76.1862 8.85333 76.0529 9 75.7863 9.24C75.5463 9.45333 75.2663 9.74667 74.9463 10.12C74.6263 10.4667 74.3329 10.8667 74.0663 11.32C73.8263 11.7733 73.7063 12.2533 73.7063 12.76C73.7063 13.0267 73.7596 13.2667 73.8663 13.48C73.9196 13.5867 73.9729 13.6667 74.0263 13.72ZM68.5063 18C68.5063 17.7067 68.4663 17.4533 68.3863 17.24C68.3329 17 68.2263 16.7333 68.0663 16.44C67.8263 16.5733 67.5729 16.7333 67.3063 16.92C67.0396 17.1067 66.7863 17.3067 66.5463 17.52C66.3329 17.7333 66.1463 17.96 65.9863 18.2C65.8262 18.44 65.7462 18.6533 65.7462 18.84C65.7462 19.3733 66.0796 19.64 66.7463 19.64C67.1196 19.64 67.4263 19.56 67.6663 19.4C67.9063 19.2133 68.0796 19.0133 68.1863 18.8C68.3196 18.5867 68.3996 18.4 68.4263 18.24C68.4796 18.08 68.5063 18 68.5063 18ZM90.1478 22.68C89.1878 22.68 88.2678 22.5467 87.3878 22.28C86.5078 22.04 85.7345 21.6533 85.0678 21.12C84.4011 20.6133 83.8678 19.96 83.4678 19.16C83.0678 18.36 82.8678 17.4 82.8678 16.28C82.8678 14.9733 83.0545 13.76 83.4278 12.64C83.8011 11.52 84.2278 10.5467 84.7078 9.72C85.1878 8.86667 85.6411 8.18667 86.0678 7.68C86.4945 7.17333 86.7745 6.85333 86.9078 6.72C87.3345 6.26667 87.8678 5.74667 88.5078 5.16C89.1478 4.57333 89.8945 4.01333 90.7478 3.48C91.6278 2.94667 92.6145 2.50667 93.7078 2.16C94.8011 1.78667 96.0145 1.6 97.3478 1.6C97.6678 1.6 98.0278 1.64 98.4278 1.72C98.8545 1.77333 99.2545 1.93333 99.6278 2.2C100.028 2.44 100.348 2.81333 100.588 3.32C100.854 3.8 100.988 4.46667 100.988 5.32C100.988 5.58667 100.881 6.08 100.668 6.8C100.481 7.52 100.148 8.25333 99.6678 9C99.1878 9.74667 98.5478 10.4133 97.7478 11C96.9478 11.5867 95.9478 11.88 94.7478 11.88C94.2411 11.88 93.7611 11.8 93.3078 11.64C92.8545 11.48 92.4545 11.2933 92.1078 11.08C91.7611 10.84 91.4811 10.6267 91.2678 10.44C91.0811 10.2267 90.9878 10.08 90.9878 10C90.9878 9.94667 91.0145 9.92 91.0678 9.92C91.1478 9.89333 91.2145 9.88 91.2678 9.88C92.5478 9.88 93.6678 9.62667 94.6278 9.12C95.6145 8.61333 96.4411 8.02667 97.1078 7.36C97.7745 6.66667 98.2678 5.98667 98.5878 5.32C98.9345 4.65333 99.1078 4.17333 99.1078 3.88C99.1078 3.53333 99.0278 3.30667 98.8678 3.2C98.7345 3.06667 98.5745 2.98667 98.3878 2.96C98.3078 2.98667 98.2278 3 98.1478 3C98.0678 3 98.0011 3.01333 97.9478 3.04C97.8678 3.06667 97.8145 3.09333 97.7878 3.12C96.5078 3.54667 95.1611 4.24 93.7478 5.2C92.3345 6.16 91.0278 7.28 89.8278 8.56C88.6545 9.81333 87.6811 11.1867 86.9078 12.68C86.1611 14.1733 85.7878 15.68 85.7878 17.2C85.7878 17.7067 85.8545 18.2 85.9878 18.68C86.1478 19.1333 86.4145 19.5467 86.7878 19.92C87.1878 20.2933 87.7211 20.6 88.3878 20.84C89.0545 21.0533 89.8945 21.16 90.9078 21.16C91.8678 21.16 92.7345 21.0133 93.5078 20.72C94.2811 20.4267 94.9478 20.0667 95.5078 19.64C96.0945 19.1867 96.5611 18.6933 96.9078 18.16C97.2811 17.6 97.5478 17.0533 97.7078 16.52C97.7611 16.4133 97.8411 16.2667 97.9478 16.08C98.0811 15.8667 98.2545 15.76 98.4678 15.76C98.7345 15.76 98.9078 15.84 98.9878 16C99.0678 16.16 99.1078 16.4133 99.1078 16.76C99.1078 16.76 99.0411 16.92 98.9078 17.24C98.8011 17.5333 98.6145 17.9067 98.3478 18.36C98.0811 18.7867 97.7211 19.2533 97.2678 19.76C96.8411 20.2667 96.2945 20.7333 95.6278 21.16C94.9611 21.5867 94.1745 21.9467 93.2678 22.24C92.3611 22.5333 91.3211 22.68 90.1478 22.68ZM108.208 15.16C107.995 15.4533 107.661 15.76 107.208 16.08C106.755 16.4 106.155 16.68 105.408 16.92C105.115 17.48 104.781 18.0267 104.408 18.56C104.061 19.0667 103.688 19.52 103.288 19.92C102.888 20.32 102.475 20.64 102.048 20.88C101.648 21.12 101.235 21.24 100.808 21.24C100.728 21.24 100.648 21.2267 100.568 21.2C100.515 21.2 100.448 21.1867 100.368 21.16C100.448 21.16 100.328 21.12 100.008 21.04C99.7148 20.96 99.3681 20.8133 98.9681 20.6C98.5948 20.36 98.2348 20.04 97.8881 19.64C97.5415 19.2133 97.3681 18.6667 97.3681 18C97.3681 17.2533 97.5148 16.4533 97.8081 15.6C98.1015 14.7467 98.3948 14.0533 98.6881 13.52C99.1415 12.6933 99.6081 11.9467 100.088 11.28C100.515 10.72 100.981 10.2133 101.488 9.76C101.995 9.28 102.501 9.04 103.008 9.04C103.061 9.04 103.101 9.05333 103.128 9.08C103.181 9.08 103.235 9.08 103.288 9.08C103.741 9.18667 104.115 9.28 104.408 9.36C104.728 9.41333 104.981 9.46667 105.168 9.52C105.381 9.6 105.555 9.65333 105.688 9.68C105.715 9.68 105.795 9.72 105.928 9.8C106.088 9.88 106.261 10.0133 106.448 10.2C106.635 10.36 106.795 10.5867 106.928 10.88C107.088 11.1733 107.168 11.52 107.168 11.92C107.168 12.64 106.861 13.72 106.248 15.16C106.435 15.08 106.635 14.9733 106.848 14.84C107.061 14.68 107.261 14.5467 107.448 14.44C107.661 14.3067 107.835 14.2 107.968 14.12C108.128 14.0133 108.248 13.96 108.328 13.96C108.461 13.96 108.528 14.08 108.528 14.32C108.528 14.5867 108.421 14.8667 108.208 15.16ZM100.688 19.72C100.795 19.8267 100.915 19.88 101.048 19.88C101.421 19.88 101.861 19.6133 102.368 19.08C102.875 18.52 103.368 17.88 103.848 17.16C103.395 17.1333 102.928 17.0267 102.448 16.84C101.995 16.6267 101.648 16.2667 101.408 15.76C101.195 16.1333 101.021 16.4933 100.888 16.84C100.755 17.1333 100.635 17.4667 100.528 17.84C100.421 18.2133 100.368 18.5467 100.368 18.84C100.368 19.24 100.475 19.5333 100.688 19.72ZM105.048 15.04C105.341 14.4 105.555 13.8133 105.688 13.28C105.848 12.7467 105.928 12.2933 105.928 11.92C105.928 11.1733 105.741 10.8 105.368 10.8C105.075 10.8 104.755 10.96 104.408 11.28C104.088 11.6 103.781 11.9733 103.488 12.4C103.221 12.8 102.995 13.1867 102.808 13.56C102.621 13.9333 102.528 14.1733 102.528 14.28C102.528 14.5467 102.675 14.8667 102.968 15.24C103.261 15.5867 103.688 15.76 104.248 15.76C104.568 15.76 104.755 15.6933 104.808 15.56C104.861 15.4 104.941 15.2267 105.048 15.04ZM112.505 0.719999C112.665 0.773333 112.958 0.893333 113.385 1.08C113.812 1.24 114.225 1.50667 114.625 1.88C115.025 2.22667 115.345 2.69333 115.585 3.28C115.852 3.84 115.905 4.53333 115.745 5.36C115.558 6.32 115.185 7.38667 114.625 8.56C114.065 9.73333 113.452 10.9467 112.785 12.2C112.145 13.4267 111.532 14.64 110.945 15.84C110.358 17.04 109.958 18.1467 109.745 19.16C109.692 19.4267 109.732 19.5733 109.865 19.6C110.158 19.6533 110.452 19.5733 110.745 19.36C111.038 19.12 111.292 18.9067 111.505 18.72C111.692 18.5067 111.865 18.28 112.025 18.04C112.185 17.7733 112.292 17.5067 112.345 17.24C112.425 17 112.532 16.84 112.665 16.76C112.825 16.68 112.958 16.6667 113.065 16.72C113.172 16.7733 113.252 16.8933 113.305 17.08C113.358 17.24 113.345 17.44 113.265 17.68C113.025 18.5333 112.532 19.28 111.785 19.92C111.065 20.56 110.225 20.92 109.265 21C108.945 21.0267 108.612 21 108.265 20.92C107.918 20.8133 107.625 20.6267 107.385 20.36C106.932 19.9067 106.665 19.2933 106.585 18.52C106.478 17.72 106.692 16.76 107.225 15.64C107.732 14.5733 108.332 13.3733 109.025 12.04C109.745 10.68 110.385 9.30667 110.945 7.92C111.532 6.53333 111.985 5.21333 112.305 3.96C112.625 2.70667 112.665 1.64 112.425 0.759998V0.719999H112.505ZM118.286 0.719999C118.446 0.773333 118.74 0.893333 119.166 1.08C119.593 1.24 120.006 1.50667 120.406 1.88C120.806 2.22667 121.126 2.69333 121.366 3.28C121.633 3.84 121.686 4.53333 121.526 5.36C121.34 6.32 120.966 7.38667 120.406 8.56C119.846 9.73333 119.233 10.9467 118.566 12.2C117.926 13.4267 117.313 14.64 116.726 15.84C116.14 17.04 115.74 18.1467 115.526 19.16C115.473 19.4267 115.513 19.5733 115.646 19.6C115.94 19.6533 116.233 19.5733 116.526 19.36C116.82 19.12 117.073 18.9067 117.286 18.72C117.473 18.5067 117.646 18.28 117.806 18.04C117.966 17.7733 118.073 17.5067 118.126 17.24C118.206 17 118.313 16.84 118.446 16.76C118.606 16.68 118.74 16.6667 118.846 16.72C118.953 16.7733 119.033 16.8933 119.086 17.08C119.14 17.24 119.126 17.44 119.046 17.68C118.806 18.5333 118.313 19.28 117.566 19.92C116.846 20.56 116.006 20.92 115.046 21C114.726 21.0267 114.393 21 114.046 20.92C113.7 20.8133 113.406 20.6267 113.166 20.36C112.713 19.9067 112.446 19.2933 112.366 18.52C112.26 17.72 112.473 16.76 113.006 15.64C113.513 14.5733 114.113 13.3733 114.806 12.04C115.526 10.68 116.166 9.30667 116.726 7.92C117.313 6.53333 117.766 5.21333 118.086 3.96C118.406 2.70667 118.446 1.64 118.206 0.759998V0.719999H118.286ZM127.514 17.44C127.674 17.2 127.834 17.04 127.994 16.96C128.181 16.88 128.341 16.8667 128.474 16.92C128.607 16.9733 128.687 17.0933 128.714 17.28C128.741 17.44 128.674 17.64 128.514 17.88C127.954 18.7067 127.154 19.4533 126.114 20.12C125.074 20.76 123.701 21.1067 121.994 21.16C121.141 21.2133 120.367 21.08 119.674 20.76C118.981 20.44 118.527 19.8267 118.314 18.92C118.127 18.3067 118.087 17.6667 118.194 17C118.301 16.3333 118.501 15.68 118.794 15.04C119.061 14.3733 119.394 13.7467 119.794 13.16C120.194 12.5733 120.607 12.04 121.034 11.56C121.674 10.8667 122.314 10.3467 122.954 10C123.594 9.65333 124.221 9.46667 124.834 9.44C125.314 9.44 125.821 9.52 126.354 9.68C126.914 9.81333 127.367 10.0667 127.714 10.44C127.954 10.7333 128.074 11.0933 128.074 11.52C128.101 11.9467 127.914 12.48 127.514 13.12C127.434 13.2533 127.341 13.4 127.234 13.56C126.781 14.12 126.287 14.5867 125.754 14.96C125.247 15.3067 124.727 15.5867 124.194 15.8C123.687 15.9867 123.207 16.12 122.754 16.2C122.327 16.2533 121.981 16.2933 121.714 16.32C121.287 17.1467 121.047 17.8133 120.994 18.32C120.994 18.5867 121.061 18.84 121.194 19.08C121.327 19.32 121.581 19.5067 121.954 19.64C122.647 19.7467 123.341 19.7467 124.034 19.64C124.621 19.56 125.234 19.36 125.874 19.04C126.514 18.72 127.061 18.1867 127.514 17.44ZM122.914 14.2C122.781 14.36 122.661 14.5333 122.554 14.72C122.474 14.88 122.394 15.04 122.314 15.2C122.794 15.12 123.274 14.9467 123.754 14.68C124.234 14.4133 124.674 14.1067 125.074 13.76C125.474 13.4133 125.807 13.08 126.074 12.76C126.367 12.44 126.541 12.2 126.594 12.04C126.594 11.9867 126.594 11.96 126.594 11.96C126.621 11.9333 126.634 11.9067 126.634 11.88C126.687 11.64 126.661 11.4667 126.554 11.36C126.474 11.2267 126.394 11.1333 126.314 11.08C126.234 11.0533 126.194 11.0267 126.194 11C125.901 10.9467 125.487 11.1467 124.954 11.6C124.447 12.0533 123.767 12.92 122.914 14.2ZM138.561 17.32C138.667 16.9467 138.841 16.76 139.081 16.76C139.374 16.76 139.521 16.96 139.521 17.36C139.521 17.8133 139.414 18.2533 139.201 18.68C138.987 19.08 138.694 19.4533 138.321 19.8C137.974 20.12 137.574 20.4 137.121 20.64C136.694 20.8533 136.267 20.9733 135.841 21C135.521 21 135.334 21.04 135.281 21.12C135.227 21.2 135.094 21.3867 134.881 21.68C135.227 21.76 135.587 21.88 135.961 22.04C136.334 22.2 136.681 22.3867 137.001 22.6C137.321 22.84 137.574 23.1067 137.761 23.4C137.974 23.72 138.081 24.0533 138.081 24.4C138.081 24.7733 137.974 25.1467 137.761 25.52C137.574 25.92 137.441 26.12 137.361 26.12C137.361 26.12 137.321 26.08 137.241 26C137.054 25.6267 136.681 25.2667 136.121 24.92C135.561 24.5733 134.961 24.2533 134.321 23.96C133.681 23.6933 133.081 23.4667 132.521 23.28C131.961 23.12 131.587 23.04 131.401 23.04H131.321C131.907 23.2 132.361 23.3467 132.681 23.48C133.001 23.6133 133.241 23.7333 133.401 23.84C132.761 24.6133 132.067 25.2267 131.321 25.68C130.601 26.1333 129.801 26.36 128.921 26.36C128.681 26.36 128.374 26.3333 128.001 26.28C127.627 26.2533 127.267 26.1467 126.921 25.96C126.574 25.8 126.281 25.5467 126.041 25.2C125.774 24.88 125.641 24.4133 125.641 23.8C125.641 23.7467 125.681 23.5867 125.761 23.32C125.841 23.08 126.067 22.8133 126.441 22.52C126.787 22.2267 127.361 21.96 128.161 21.72C128.961 21.48 130.081 21.36 131.521 21.36C131.867 20.64 132.174 19.96 132.441 19.32C132.707 18.68 132.934 18.1333 133.121 17.68C133.041 17.8133 132.894 18.0667 132.681 18.44C132.467 18.7867 132.201 19.1467 131.881 19.52C131.587 19.8933 131.254 20.24 130.881 20.56C130.534 20.8533 130.187 21 129.841 21C129.601 21 129.347 20.92 129.081 20.76C128.814 20.5733 128.561 20.32 128.321 20C128.081 19.68 127.881 19.2933 127.721 18.84C127.561 18.3867 127.481 17.8933 127.481 17.36C127.481 16.4 127.707 15.4533 128.161 14.52C128.587 13.56 129.121 12.7067 129.761 11.96C130.401 11.2133 131.081 10.6133 131.801 10.16C132.547 9.70667 133.227 9.48 133.841 9.48C134.401 9.48 134.894 9.61333 135.321 9.88C135.747 10.12 136.094 10.4133 136.361 10.76C136.627 11.08 136.827 11.4 136.961 11.72C137.094 12.0133 137.161 12.2133 137.161 12.32C137.161 12.56 137.121 12.8 137.041 13.04C136.987 13.28 136.907 13.5067 136.801 13.72C137.281 14.0933 137.521 14.5867 137.521 15.2C137.521 15.6267 137.427 16.08 137.241 16.56C137.214 16.64 137.147 16.8 137.041 17.04C136.934 17.2533 136.814 17.5067 136.681 17.8C136.574 18.0933 136.467 18.3867 136.361 18.68C136.281 18.9733 136.241 19.2133 136.241 19.4C136.241 19.56 136.307 19.64 136.441 19.64C136.894 19.56 137.321 19.28 137.721 18.8C138.121 18.32 138.401 17.8267 138.561 17.32ZM128.041 24.64C128.094 24.6667 128.187 24.68 128.321 24.68C129.121 24.68 129.894 24.1067 130.641 22.96C130.374 22.9333 130.121 22.9067 129.881 22.88C129.641 22.88 129.387 22.88 129.121 22.88C128.267 22.88 127.734 22.9867 127.521 23.2C127.281 23.4133 127.161 23.5867 127.161 23.72C127.161 23.88 127.201 24.0533 127.281 24.24C127.361 24.4267 127.614 24.56 128.041 24.64ZM135.641 13.32C135.667 13.32 135.681 13.32 135.681 13.32C135.707 13.2933 135.747 13.28 135.801 13.28C135.907 13.28 136.094 13.3333 136.361 13.44C136.147 13.0133 135.907 12.7467 135.641 12.64C135.401 12.5333 135.174 12.48 134.961 12.48C134.374 12.48 133.814 12.6933 133.281 13.12C132.774 13.5467 132.321 14.0533 131.921 14.64C131.521 15.2 131.201 15.7867 130.961 16.4C130.747 17.0133 130.641 17.52 130.641 17.92C130.641 18.2933 130.774 18.48 131.041 18.48C131.281 18.48 131.627 18.2533 132.081 17.8C132.534 17.3467 132.987 16.8267 133.441 16.24C133.921 15.6533 134.361 15.08 134.761 14.52C135.161 13.96 135.441 13.5733 135.601 13.36L135.641 13.32ZM147.748 17.44C147.908 17.2 148.068 17.04 148.228 16.96C148.415 16.88 148.575 16.8667 148.708 16.92C148.842 16.9733 148.922 17.0933 148.948 17.28C148.975 17.44 148.908 17.64 148.748 17.88C148.188 18.7067 147.388 19.4533 146.348 20.12C145.308 20.76 143.935 21.1067 142.228 21.16C141.375 21.2133 140.602 21.08 139.908 20.76C139.215 20.44 138.762 19.8267 138.548 18.92C138.362 18.3067 138.322 17.6667 138.428 17C138.535 16.3333 138.735 15.68 139.028 15.04C139.295 14.3733 139.628 13.7467 140.028 13.16C140.428 12.5733 140.842 12.04 141.268 11.56C141.908 10.8667 142.548 10.3467 143.188 10C143.828 9.65333 144.455 9.46667 145.068 9.44C145.548 9.44 146.055 9.52 146.588 9.68C147.148 9.81333 147.602 10.0667 147.948 10.44C148.188 10.7333 148.308 11.0933 148.308 11.52C148.335 11.9467 148.148 12.48 147.748 13.12C147.668 13.2533 147.575 13.4 147.468 13.56C147.015 14.12 146.522 14.5867 145.988 14.96C145.482 15.3067 144.962 15.5867 144.428 15.8C143.922 15.9867 143.442 16.12 142.988 16.2C142.562 16.2533 142.215 16.2933 141.948 16.32C141.522 17.1467 141.282 17.8133 141.228 18.32C141.228 18.5867 141.295 18.84 141.428 19.08C141.562 19.32 141.815 19.5067 142.188 19.64C142.882 19.7467 143.575 19.7467 144.268 19.64C144.855 19.56 145.468 19.36 146.108 19.04C146.748 18.72 147.295 18.1867 147.748 17.44ZM143.148 14.2C143.015 14.36 142.895 14.5333 142.788 14.72C142.708 14.88 142.628 15.04 142.548 15.2C143.028 15.12 143.508 14.9467 143.988 14.68C144.468 14.4133 144.908 14.1067 145.308 13.76C145.708 13.4133 146.042 13.08 146.308 12.76C146.602 12.44 146.775 12.2 146.828 12.04C146.828 11.9867 146.828 11.96 146.828 11.96C146.855 11.9333 146.868 11.9067 146.868 11.88C146.922 11.64 146.895 11.4667 146.788 11.36C146.708 11.2267 146.628 11.1333 146.548 11.08C146.468 11.0533 146.428 11.0267 146.428 11C146.135 10.9467 145.722 11.1467 145.188 11.6C144.682 12.0533 144.002 12.92 143.148 14.2Z" fill="black"/>
</svg>
