<svg width="18" height="15" viewBox="0 0 18 15" fill="none" xmlns="http://www.w3.org/2000/svg">
<path fill-rule="evenodd" clip-rule="evenodd" d="M18 0.525146C17.298 0.930246 15.8895 1.48234 15.0615 1.64158C15.0372 1.6477 15.0174 1.65558 14.994 1.6617C14.2623 0.959994 13.2597 0.525146 12.15 0.525146C9.9135 0.525146 8.1 2.28816 8.1 4.4624C8.1 4.57702 8.0901 4.78788 8.1 4.89987C5.0823 4.89987 2.7855 3.36347 1.1385 1.40009C0.9594 1.83756 0.8811 2.52877 0.8811 3.17798C0.8811 4.40378 1.8666 5.6077 3.4011 6.35403C3.1185 6.4249 2.8071 6.47565 2.4831 6.47565C1.9602 6.47565 1.4067 6.34178 0.9 5.93581C0.9 5.95068 0.9 5.96468 0.9 5.98043C0.9 7.69357 2.7702 8.85988 4.4334 9.18448C4.0959 9.37784 3.4155 9.39709 3.0834 9.39709C2.8494 9.39709 2.0214 9.29297 1.8 9.25273C2.2626 10.657 3.9312 11.4462 5.5215 11.4742C4.2777 12.4227 3.4146 12.7744 0.8676 12.7744H0C1.6092 13.7771 3.6585 14.5251 5.7123 14.5251C12.3993 14.5251 16.2 9.57033 16.2 4.89987C16.2 4.82463 16.1982 4.66714 16.1955 4.50877C16.1955 4.49302 16.2 4.47815 16.2 4.4624C16.2 4.43878 16.1928 4.41603 16.1928 4.3924C16.1901 4.27341 16.1874 4.16229 16.1847 4.10455C16.8957 3.60583 17.5122 2.98374 18 2.27504C17.3475 2.55677 16.6473 2.74576 15.912 2.8315C16.6626 2.39403 17.7291 1.35109 18 0.525146Z" fill="#656565"/>
</svg>
