<svg width="16" height="14" viewBox="0 0 16 14" fill="none" xmlns="http://www.w3.org/2000/svg">
<path d="M4.01225 13.16C3.30825 13.16 2.65225 12.936 2.04425 12.488C1.46825 12.008 1.00425 11.368 0.65225 10.568C0.33225 9.768 0.17225 8.872 0.17225 7.88C0.17225 6.248 0.65225 4.776 1.61225 3.464C2.57225 2.12 3.90025 1.064 5.59625 0.295998L6.60425 2.504C5.45225 3.048 4.54025 3.768 3.86825 4.664C3.22825 5.56 2.90825 6.52 2.90825 7.544C2.90825 8.152 3.00425 8.696 3.19625 9.176C3.51625 8.856 3.91625 8.696 4.39625 8.696C5.00425 8.696 5.51625 8.904 5.93225 9.32C6.34825 9.736 6.55625 10.264 6.55625 10.904C6.55625 11.544 6.30025 12.088 5.78825 12.536C5.30825 12.952 4.71625 13.16 4.01225 13.16ZM12.7483 13.16C12.0443 13.16 11.3883 12.936 10.7803 12.488C10.2043 12.008 9.74025 11.368 9.38825 10.568C9.06825 9.768 8.90825 8.872 8.90825 7.88C8.90825 6.248 9.38825 4.776 10.3483 3.464C11.3083 2.12 12.6363 1.064 14.3323 0.295998L15.3403 2.504C14.1883 3.048 13.2763 3.768 12.6043 4.664C11.9643 5.56 11.6443 6.52 11.6443 7.544C11.6443 8.152 11.7403 8.696 11.9323 9.176C12.2523 8.856 12.6523 8.696 13.1323 8.696C13.7403 8.696 14.2523 8.904 14.6683 9.32C15.0843 9.736 15.2923 10.264 15.2923 10.904C15.2923 11.544 15.0363 12.088 14.5243 12.536C14.0443 12.952 13.4523 13.16 12.7483 13.16Z" fill="#31286A"/>
</svg>
